<?xml version="1.0" encoding="UTF-8"?>
<svg id="Layer_1" data-name="Layer 1" xmlns="http://www.w3.org/2000/svg" viewBox="0 0 52.97 61.1">
  <defs>
    <style>
      .cls-1 {
        fill: #d94f26;
      }

      .cls-2 {
        fill: #881d1b;
      }

      .cls-3 {
        fill: #fff;
      }

      .cls-4 {
        fill: #e44725;
      }

      .cls-5 {
        fill: #f47521;
      }

      .cls-6 {
        fill: #eeb957;
      }

      .cls-7 {
        fill: #eb6824;
      }

      .cls-8 {
        fill: #1c1c1c;
      }

      .cls-9 {
        fill: #f15e22;
      }

      .cls-10 {
        fill: #e54225;
      }

      .cls-11 {
        fill: #3c170f;
      }

      .cls-12 {
        fill: #9d1c20;
      }

      .cls-13 {
        fill: #23160c;
      }

      .cls-14 {
        fill: #e24e25;
      }

      .cls-15 {
        fill: #f7941d;
      }

      .cls-16 {
        fill: #ed8f5f;
      }

      .cls-17 {
        fill: #cb4827;
      }

      .cls-18 {
        fill: #f9faec;
      }

      .cls-19 {
        fill: #ee1e38;
      }

      .cls-20 {
        fill: #d2d2d2;
      }

      .cls-21 {
        fill: #f0b68e;
      }

      .cls-22 {
        fill: #ec6024;
      }

      .cls-23 {
        fill: #e9a532;
      }
    </style>
  </defs>
  <g>
    <path class="cls-3" d="m27.29,20.27s-.05,0-.08-.02c-.22-.11-.25-.29-.26-.39,0-.02,0-.03,0-.05-.24-.96-.42-1.95-.58-2.9-.09-.54-.19-1.1-.3-1.65-.04-.21-.08-.24-.23-.24-.25-.02-.44-.13-.59-.28.02.33.06.65.1.97.07.57.13,1.15.11,1.74,0,.05-.02.1-.06.13-.03.03-.07.04-.12.04,0,0-.01,0-.02,0-.18-.02-.28-.13-.3-.33,0,0,0-.02,0-.03l-.07-.34c-.16-.76-.32-1.54-.46-2.31-.04-.21-.11-.3-.28-.38-.43-.19-.72-.48-.85-.85-.13-.38-.09-.8.13-1.23l.02-.03c.03-.07.07-.14.13-.21.21-.26.21-.47,0-.75-.36-.5-.42-1.09-.18-1.71.04-.11.03-.15-.04-.21-.35-.36-.55-.75-.6-1.18,0-.03-.02-.05-.1-.1l-.04-.03c-.45-.33-.67-.75-.65-1.25,0-.15-.04-.31-.14-.5-.42-.79-.32-1.62.27-2.28.17-.19.22-.35.21-.59-.07-1.11.43-1.83,1.49-2.15.21-.06.37-.15.49-.28.32-.33.69-.5,1.12-.5.09,0,.19,0,.28.02.03,0,.06,0,.09,0,.11,0,.21-.04.35-.12.33-.2.69-.3,1.04-.3.51,0,1.01.22,1.39.63.29.3.61.52,1.03.68,1.56.6,2.17,1.87,1.67,3.49-.16.53-.22.94-.2,1.35.07,1.21-.46,2.17-1.58,2.86-.43.27-.64.54-.72.93-.1.49-.35.92-.59,1.34l-.11.2c-.17.3-.22.61-.14.99.06.34.11.65.15.94.04.31-.02.58-.18.77-.13.16-.12.3-.08.56l.02.1c.13.79.27,1.61.28,2.45,0,.09-.06.16-.15.18-.01,0-.02,0-.03,0-.07,0-.14-.05-.17-.12-.28-.78-.51-1.59-.69-2.4-.04.02-.08.04-.13.05-.05,0-.08.02-.09.03-.02.03,0,.16,0,.22v.04c.17,1.07.33,2.17.48,3.26.05.35.08.69.12,1.05.02.16.03.32.05.48,0,.06-.02.13-.08.16-.03.02-.07.03-.1.03Z"/>
    <g>
      <path class="cls-7" d="m26.19,14.12c-.43-.05-.39-.05-.28-.51.09-.39.07-.79-.01-1.18,0,.19-.02.39-.02.58,0,.15-.04.29-.21.32-.17.03-.25-.09-.27-.25h0c-.18.33.16.52.21.79.07.42.36.49.72.46-.08-.05-.19-.1-.14-.21Z"/>
      <path class="cls-7" d="m25.66,13.33c.17-.03.21-.17.21-.32,0-.19.01-.39.02-.58-.02-.1-.04-.19-.06-.29-.02.26-.03.53-.05.79,0,.11.04.25-.09.31-.16.08-.21-.1-.3-.16.03.16.1.28.27.25Z"/>
      <path class="cls-7" d="m26.22,14.13s-.02,0-.04,0c-.05.11.05.16.14.21,0,0,0,0,0,0,.03-.1-.15-.1-.1-.21Z"/>
      <path class="cls-7" d="m24.89,13.18c-.19.2-.31.11-.41-.09-.03-.06-.04-.12-.04-.17-.04.15-.11.29-.35.29.09.29.33.37.59.43.19.04.22-.06.23-.2,0-.08-.02-.17-.03-.25,0,0,0,0,0,0Z"/>
      <path class="cls-7" d="m24.48,13.09c.1.21.22.29.41.09,0,0,0,0,0,0,0-.03,0-.06-.01-.09,0,0,0,0,0,0-.17.22-.26.12-.34-.07-.04-.11.05-.23-.04-.33-.02.07-.04.15-.06.22,0,.06.02.12.04.17Z"/>
      <path class="cls-7" d="m24.44,12.92c0-.05,0-.11,0-.16-.11.15-.16.36-.35.45.24,0,.31-.13.35-.29Z"/>
      <path class="cls-7" d="m24.44,12.92c.02-.07.03-.15.06-.22h0s-.04.04-.05.06c0,.06,0,.11,0,.16Z"/>
      <path class="cls-2" d="m25.38,12.7s.02-.03.02-.04c0-.06-.01-.12-.02-.18-.03.23-.25.31-.39.45-.02.06-.03.11-.05.17,0,.01,0,.02-.01.03.1.09.03.21,0,.31.13-.08.19-.2.23-.33.06-.18.14-.1.22-.02-.01-.13-.05-.26,0-.39Z"/>
      <path class="cls-2" d="m24.94,13.09c.02-.06.03-.11.05-.17-.05.05-.09.1-.11.17,0,0,0,0,0,0,0,0,0,0,0,0,0,0,0,0,0,0,0,0,0,0,0,0,.02.01.03.02.04.03,0-.01.01-.02.01-.03Z"/>
      <path class="cls-2" d="m25.42,12.74h0,0s0-.06,0-.09c0,.01-.01.03-.02.04-.06.13-.02.26,0,.39h0c.08-.11.05-.23.04-.34Z"/>
      <path class="cls-2" d="m24.93,13.12s-.02.04-.03.06c0,.08.02.17.03.25.04-.11.11-.22,0-.31Z"/>
      <path class="cls-2" d="m24.93,13.12s-.03-.02-.04-.03c0,.03,0,.06.01.09.01-.02.02-.04.03-.06Z"/>
      <path class="cls-4" d="m26.45,13.94s-.1.06-.16.09c-.03.01-.06.03-.08.06,0,.01-.01.02-.01.03.01,0,.02.01.03.02.02-.01.03-.03.05-.04,0,0,0,0,0,0,0,0,0,0,0,0,.07-.05.12-.1.17-.15Z"/>
      <path class="cls-4" d="m26,13.53c.12-.39,0-.81-.03-1.22,0-.06-.02-.11-.07-.14,0,0,0,0,0,0,0,.09,0,.17-.01.26.08.39.1.79.01,1.18-.1.46-.15.46.28.51,0,0,0,0,0-.01-.25-.13-.28-.3-.19-.58Z"/>
      <path class="cls-4" d="m25.91,12.17s0,0,0,0c-.02-.01-.04-.02-.07-.02h0c.02.1.05.19.06.29,0-.09,0-.17.01-.26Z"/>
      <path class="cls-4" d="m26.19,14.12s.02,0,.04,0c-.01,0-.02-.01-.03-.02,0,0,0,0,0,.01Z"/>
      <path class="cls-7" d="m25.43,12.44c-.02-.1-.06-.21-.06-.31,0-.06-.04-.12-.11-.12-.07,0-.09.07-.09.13-.02.21-.07.41-.13.61.08-.1.17-.19.24-.29.06-.09.11-.07.15-.02Z"/>
      <path class="cls-7" d="m25.17,12.14c0-.06.02-.12.09-.13.07,0,.11.06.11.12,0,.1.04.21.06.31.01.02.03.05.03.07.02.08-.02.15-.05.23.13-.15.12-.73-.03-.83-.1-.06-.28-.16-.29.05,0,.39-.19.74-.21,1.12.02-.13.08-.24.16-.33.06-.2.11-.4.13-.61Z"/>
      <path class="cls-7" d="m25.43,12.44c-.04-.06-.1-.07-.15.02-.07.11-.16.2-.24.29-.02.06-.03.11-.05.17.14-.14.36-.22.39-.45,0,.06.01.12.02.18.04-.07.04-.14.03-.22Z"/>
      <path class="cls-7" d="m24.99,12.92c.02-.06.03-.11.05-.17-.08.1-.14.2-.16.33,0,0,0,0,0,0,.02-.07.06-.12.11-.17Z"/>
      <path class="cls-7" d="m25.47,12.51s-.02-.05-.03-.07c.01.07,0,.14-.03.22,0,.03,0,.06,0,.09h0c.03-.07.08-.15.05-.23Z"/>
      <path class="cls-12" d="m26.77,11.27c-.2.64-.08,1.29-.01,1.93,0,.08.01.15,0,.21.02.32-.11.47-.49.67.32-.03.63-.37.6-.67-.03-.32-.09-.64-.11-.97-.04-.49-.03-.97.2-1.42,0,0,0-.02-.01-.03-.15.02-.15.15-.18.27Z"/>
      <path class="cls-12" d="m26.55,12.16s0,0,0,0c-.02.01-.04.03-.07.04.03.24.04.49.11.72.13.4.13.75-.14,1.03.22-.14.31-.28.32-.52,0-.07-.02-.15-.04-.24-.07-.34-.1-.68-.18-1.02Z"/>
      <path class="cls-12" d="m26.76,13.42c0,.24-.1.39-.32.52-.05.05-.11.1-.17.15,0,0,0,0,0,0,.38-.2.51-.35.49-.67Z"/>
      <path class="cls-12" d="m26.52,12.08s-.03.07-.05.11c.03-.01.05-.02.07-.04,0-.02-.01-.04-.02-.07Z"/>
      <path class="cls-18" d="m24.44,12.75s.03-.04.05-.06h0s0,0,0,0c.31-.46.48-.91.24-1.48-.18-.41-.34-.86-.17-1.34.08-.22.02-.41-.16-.56-.49.68-.49.97-.03,1.65.36.52.35.58-.02,1.11-.23.34-.45.69-.26,1.13.19-.09.24-.3.35-.45Z"/>
      <g>
        <path class="cls-11" d="m29.5,1.47c-.43-.16-.78-.39-1.09-.72-.6-.64-1.46-.74-2.21-.29-.18.11-.35.17-.56.13-.49-.08-.9.07-1.24.43-.16.16-.35.26-.57.33-.98.29-1.43.92-1.36,1.96.02.3-.06.51-.25.73-.54.61-.62,1.36-.24,2.08.1.19.17.38.16.6-.02.49.21.83.58,1.1.1.07.2.13.21.26.05.42.26.77.55,1.07.12.12.14.24.07.4-.21.53-.18,1.07.16,1.54.25.35.25.65-.01.97-.05.06-.09.14-.12.21-.39.76-.15,1.49.64,1.83.25.11.34.26.39.51.16.88.35,1.76.53,2.64.02.08-.02.2.14.21.03-1.09-.23-2.15-.23-3.25.21.31.41.62.8.65.27.02.34.15.39.39.3,1.51.5,3.04.88,4.54.02.1,0,.23.17.32-.05-.53-.09-1.03-.16-1.53-.15-1.1-.32-2.2-.48-3.29-.03-.22-.05-.42.24-.46.1-.01.16-.15.29-.11.17.88.41,1.73.72,2.58,0-.85-.15-1.67-.29-2.5-.04-.26-.08-.49.11-.72.14-.17.17-.41.14-.64-.04-.31-.09-.62-.15-.93-.07-.39-.04-.76.16-1.11.27-.48.58-.95.69-1.49.1-.49.39-.79.8-1.04.99-.62,1.57-1.49,1.5-2.7-.02-.49.07-.95.21-1.41.47-1.52-.09-2.7-1.56-3.27Zm.94,2.82c-.19.6-.24,1.21-.25,1.83-.02.83-.31,1.52-.97,2.04-.11.09-.22.17-.34.23-.46.24-.83.55-.94,1.1-.1.49-.3.95-.6,1.36h0c-.09.25-.19.5-.26.75-.13.46-.07.92.05,1.37.04.14.05.27.05.39,0,.54-.32.92-.86.98-.05,0-.11,0-.16,0-.28,0-.5-.11-.56-.46-.05-.27-.39-.46-.21-.79h-.02s-.09-.09-.13-.09c-.03,0-.07.03-.09.11-.05.14-.1.26-.23.33-.02.14-.05.24-.23.2-.27-.05-.51-.14-.6-.43-.18-.44.02-.79.26-1.13.37-.53.38-.59.02-1.11-.46-.67-.46-.97.03-1.65-.05-.21-.19-.38-.34-.54-.48-.33-.57-.83-.57-1.36-.1-.05-.21-.09-.31-.14-.35-.14-.51-.4-.43-.78.04-.2-.01-.35-.13-.51-.5-.68-.32-1.46.43-1.9.11-.09.15-.2.14-.34-.33-1.08.05-1.67,1.26-1.94.28-.28.51-.64.98-.59.16-.03.18.23.32.23.02,0,.06-.01.09-.03.41-.36.82-.54,1.21-.54.22,0,.43.06.62.17,0,0,.02,0,.03,0,.54.65,1.34.89,2.02,1.34.66.44.95,1.14.72,1.88Z"/>
        <path class="cls-15" d="m27.21,4.6c-.08-.07-.15-.04-.21.02-.07.07-.13.14-.2.19-.1.08-.17.28-.33.18-.08-.05-.1-.11-.1-.18,0-.07.02-.15.06-.22.01-.4.08-.81.03-1.21,0-.08-.01-.16-.07-.23-.14-.05-.28-.07-.39-.18-.12.2-.09.43-.11.65,0,.1.02.23-.09.27s-.18-.08-.24-.16c-.1-.15-.15-.32-.15-.48,0-.32.17-.62.48-.78-.32-.32-.72-.15-1.09-.15h-.06c-.07.07-.14.14-.22.2-.05.06-.1.13-.16.18-.08.06-.14.24-.26.15-.12-.09-.04-.23.04-.34-.05-.14-.12-.05-.17,0-.17.17-.34.34-.51.51-.1.15-.07.32-.07.48,0,.07,0,.14-.03.21.02.17-.05.31-.14.44h0c.16-.02.21-.21.35-.26.07-.02.12-.09.19-.04.05.05.07.12.05.19-.07.25-.13.51-.2.77-.03.12-.11.24-.23.22-.12-.02-.1-.16-.14-.26-.06-.15.12-.34-.07-.47-.57.69-.44,1.18-.05,1.73.07.09.11.18.1.28-.02.32.08.65-.02.97h0c.11.05.21.09.31.14.07-.17.08-.37.22-.51.05-.05.09-.12.17-.09.07.03.12.09.12.16-.02.49.08.98.08,1.46,0,.11,0,.22-.02.32.15.16.29.32.34.54.18.15.24.35.16.56-.17.48,0,.92.17,1.34.24.57.07,1.02-.24,1.48.03.04.04.07.04.12,0,.07-.02.14,0,.21.08.2.18.29.34.07h0c.02-.39.2-.73.21-1.12,0-.21.19-.12.29-.05.15.09.16.67.03.83,0,.05.01.11.01.16,0,.06-.01.12-.05.18h.02c.08.06.13.18.23.18.02,0,.05,0,.08-.02.13-.07.08-.21.09-.32.02-.26.03-.53.05-.79-.04-.25-.03-.48.04-.73.16-.58.14-1.17.18-1.83-.17.15-.3.26-.46.4-.05-.35.14-.59.26-.83.05-.09.14-.09.25-.04.27.14.39-.05.46-.26.08-.24.17-.49.17-.75v-.03c-.07-.21.12-.39.07-.6-.02-.1.03-.22-.09-.27-.11-.05-.16.07-.22.12-.06.05-.12.12-.21.1-.14-.02-.2-.12-.16-.25.1-.38.21-.76.33-1.14.05-.16.15-.29.32-.09.14.13.25.15.27-.08.02-.2.02-.39.03-.59,0-.16-.02-.32.12-.45.07-.06.09-.14.02-.21Zm-2.83,1.72c-.09-.09-.16-.19-.15-.33-.09-.25-.09-.5-.08-.76.02-.18.09-.32.31-.4,0,.46.07.89.21,1.3.1.12.03.19-.06.25-.1.08-.17,0-.24-.07Zm.45,2.76c-.07,0-.13-.05-.18-.1-.16-.27-.24-.55-.16-.86.01-.05.06-.12.1-.13.07-.02.12.06.15.12.13.27.16.55.18.85,0,.06-.01.12-.09.13Zm1.35-3.26c-.06.14-.21.11-.32,0-.07-.07.11-.57.25-.69.12-.09.21-.04.35.09.1.24-.19.39-.28.6Z"/>
        <path class="cls-5" d="m26.49,4.72c0,.06,0,.11.06.13.06.02.1-.02.14-.07,0,0-.01,0-.02,0-.08,0-.14-.02-.18-.07Z"/>
        <path class="cls-5" d="m24.52,1.91h.01s0,0,0,0c.01.14-.06.32.1.38.02-.01.03-.02.05-.03.3-.12.61-.07.92-.05.13,0,.24.08.28.22,0,.01,0,.02,0,.04,0,0,0,0,0,0h0s0,0,0,0c.07,0,.14-.01.2,0,.12.01.3-.01.27.17-.02.13-.13.29-.33.18-.04.04-.07.09-.05.14,0,0,0,0,.01,0,.15.02.29.08.41.16,0-.09-.05-.22.08-.22.13,0,.24.07.31.25.2.49.2.96.07,1.45,0,.02-.01.05-.02.07.04-.04.09-.08.14-.11.09-.05.18-.06.26.01.07.06.12.15.07.22-.23.33-.11.71-.18,1.05-.05.22-.12.36-.38.23,0,0-.01,0-.02-.01-.11.41-.13.85-.35,1.22.04-.02.08-.06.12-.08.21-.1.32-.05.37.19.04.21-.04.4-.06.6,0,0,.02-.01.03-.01.52-.1.71-.52.92-.92h0s0,0,0,0c.02-.08.03-.17.05-.25,0,0,0,0,0,0-.11-.09-.15-.23-.22-.35-.08-.12-.05-.34-.32-.33-.13,0-.09-.22-.04-.28.14-.16.09-.32.04-.48-.12-.34.11-.6.22-.88.08-.21.11-.37-.04-.55-.24-.27-.13-.59-.09-.87.07-.47-.05-.84-.43-1.13,0,0,0,0,0,0-.11-.02-.22-.04-.35-.07.05-.2.27-.05.35-.21-.23-.09-.43-.21-.69-.17-.1.02-.13-.02-.07-.11-.12-.04-.2.18-.34.06,0,0,0,0,0,0-.24.14-.23-.24-.42-.2t0,0s0,0,0,0c-.29.24-.64.41-.9.68Z"/>
        <path class="cls-5" d="m25.99,2.94s0,0-.01,0c0,0,0,.02.02.03,0,0,0,0,0,0,0,0,0,0,0,0,.11.11.25.13.39.18.01-.02.02-.04.02-.06-.13-.08-.26-.14-.41-.16Z"/>
        <path class="cls-5" d="m25.88,2.46s0-.02,0-.04c-.04-.14-.14-.21-.28-.22-.31-.02-.62-.07-.92.05-.02.01-.03.02-.05.03.03,0,.06.02.1.02h0c.38.02.8-.19,1.14.15h0s0,0,0,0c0,0,0,0,0,0Z"/>
        <path class="cls-5" d="m26.76,6.05c.25.13.33-.02.38-.23.07-.35-.05-.73.18-1.05.05-.07,0-.16-.07-.22-.08-.07-.17-.06-.26-.01-.05.03-.1.07-.14.11-.03.07-.07.13-.15.14-.04.04-.09.09-.14.07-.06-.03-.07-.08-.06-.13-.03-.03-.05-.07-.06-.13,0,0,0,0,0,0-.07.15-.1.31.05.41.16.1.23-.11.33-.18.07-.06.13-.13.2-.19.06-.06.13-.1.21-.02.08.07.05.15-.01.21-.15.12-.12.29-.12.45,0,.2,0,.4-.03.59-.02.23-.13.21-.27.08,0,.03-.02.07-.03.1,0,0,.01,0,.02.01Z"/>
        <path class="cls-5" d="m26.82,7.97c.02-.2.11-.39.06-.6-.05-.23-.16-.29-.37-.19-.04.02-.08.06-.12.08-.03.06-.07.11-.11.16.09.02.14-.05.21-.1.07-.06.11-.17.22-.12.12.05.08.17.09.27.04.21-.14.39-.07.6.03-.03.06-.08.09-.11Z"/>
        <path class="cls-16" d="m26.18,1.33s.04.01.06.02c.38-.14.76-.21,1.15-.05,0-.16.07-.22.26-.16.02,0,.04.03.07.03-.04-.03-.06-.06-.05-.11h0s0,0,0,0c-.54-.32-1.19-.19-1.83.37,0,0,0,0,0,0,.12,0,.2-.15.33-.1Z"/>
        <path class="cls-16" d="m26.18,1.37s.04-.01.06-.02c-.02,0-.04-.01-.06-.02-.14-.06-.21.1-.33.1.14.12.21-.1.34-.06Z"/>
        <path class="cls-21" d="m24.52,1.85s.02-.03.03-.04c.24-.28.53-.48.88-.58-.47-.05-.7.31-.98.59h0s.06.01.07.04Z"/>
        <path class="cls-21" d="m24.55,1.81s-.02.03-.03.04c0,.01.01.03,0,.06.26-.27.61-.44.9-.68,0,0,0,0,0,0-.35.11-.64.3-.88.58Z"/>
        <path class="cls-21" d="m24.5,1.88s0-.02.01-.03c-.01-.02-.04-.03-.07-.04h0s.04.04.06.06Z"/>
        <path class="cls-21" d="m24.52,1.85s-.01.02-.01.03c0,0,.02.02.02.03,0-.02,0-.04,0-.06Z"/>
        <path class="cls-4" d="m25.98,12.31c.02.41.15.82.03,1.22-.09.28-.06.46.19.58,0,0,0-.02.01-.03.02-.02.05-.04.08-.06.06-.03.11-.06.16-.09.27-.28.27-.63.14-1.03-.07-.23-.08-.48-.11-.72-.18-.38-.24-.79-.15-1.19.09-.43.09-.86.03-1.28-.05-.35.15-.5.36-.57.23-.07.31-.22.4-.39.17-.32.33-.65.5-.97.03-.21.18-.4.17-.63-.02.03-.04.06-.05.09-.14.47-.48.71-.93.81,0,0,0,0,0,0,0,.25-.06.48-.13.72-.1.29-.23.49-.6.46-.32-.03-.26.32-.43.5.11,0,.14-.07.19-.1.2-.14.28-.05.28.15-.01.42,0,.84-.08,1.25-.07.37-.17.75-.13,1.13.05.03.07.09.07.14Z"/>
        <path class="cls-4" d="m25.91,12.17c-.04-.39.06-.76.13-1.13.08-.41.07-.83.08-1.25,0-.2-.08-.29-.28-.15-.05.03-.08.09-.19.1.16-.18.1-.52.43-.5.36.03.5-.17.6-.46.08-.23.14-.47.13-.72,0,0,0,0,0,0-.03,0-.06.01-.09.02h0s0,0,0,0c0,.27-.08.53-.17.78-.07.21-.19.39-.47.26-.1-.05-.19-.05-.24.04-.13.25-.31.48-.26.83.16-.14.29-.26.46-.41-.04.66-.02,1.26-.18,1.84-.07.24-.08.48-.04.73h0s0,0,0,0c.03,0,.05.01.07.02Z"/>
        <path class="cls-4" d="m27.74,7.24s.03-.06.05-.09c0-.04,0-.08-.02-.12h0c-.21.4-.4.83-.92.92-.01,0-.02,0-.03.01,0,.03,0,.06,0,.09.45-.1.78-.34.93-.81Z"/>
        <path class="cls-4" d="m26.82,8.05s0-.06,0-.09c-.03.02-.06.07-.09.11h0s.06-.01.09-.02Z"/>
        <path class="cls-14" d="m26.83,4.36c.05-.39.06-.78-.1-1.16-.09-.21-.18-.23-.31-.1.2.24.14.53.14.8,0,.24-.04.48-.07.72.2.07.3-.04.33-.26Z"/>
        <path class="cls-14" d="m26.56,3.91c0-.27.05-.56-.14-.8-.01.01-.03.03-.04.04.06.06.06.14.07.23.05.41-.02.81-.03,1.21h0s.05.02.07.03c.03-.24.07-.48.07-.72Z"/>
        <path class="cls-14" d="m26.42,3.11c.13-.14.22-.12.31.1.16.38.15.77.1,1.16-.03.22-.13.33-.33.26,0,0,0,0,0,.01,0,.03,0,.06,0,.09.04.05.11.07.18.07,0,0,.01,0,.02,0,0-.01.02-.02.03-.03.04-.04.08-.08.12-.12,0-.02.02-.05.02-.07.13-.49.14-.96-.07-1.45-.07-.18-.18-.25-.31-.25-.13,0-.08.13-.08.22,0,0,.01,0,.02.01,0,0,0,0,0,0Z"/>
        <path class="cls-14" d="m26.49,4.72s0-.06,0-.09c0,0,0,0,0-.01-.02,0-.05-.02-.07-.03.01.05.04.09.06.13Z"/>
        <path class="cls-14" d="m26.69,4.79c.08-.02.12-.07.15-.14-.04.04-.08.08-.12.12,0,0-.02.02-.03.03Z"/>
        <path class="cls-14" d="m26.42,3.11s-.01,0-.02-.01c0,.02,0,.04-.02.06.01-.02.03-.03.04-.04,0,0,0,0,0,0Z"/>
        <path class="cls-1" d="m26.53,6.09c-.14.36-.23.72-.29,1.1,0,.05.04.08.09.08,0,0,0,0,0,0,.13-.42.17-.86.39-1.25-.08-.04-.15-.03-.19.07Z"/>
        <path class="cls-1" d="m26.33,7.28s0,0,0,0c-.05,0-.1-.04-.09-.08.06-.38.16-.75.29-1.1.04-.09.11-.1.19-.07.02-.03.03-.06.05-.09-.17-.19-.27-.07-.32.09-.12.38-.23.76-.33,1.14-.04.13.02.23.16.25,0,0,0,0,0,0,0,0,0,0,0,0,.02-.05.04-.1.05-.15Z"/>
        <path class="cls-1" d="m26.33,7.28s.04,0,.06-.02c.22-.37.25-.81.35-1.22,0,0-.02,0-.02-.01-.22.39-.26.84-.39,1.25Z"/>
        <path class="cls-1" d="m26.33,7.28s-.03.1-.05.15c0,0,0,0,0,0,.04-.05.08-.11.11-.16-.02,0-.04.02-.06.02Z"/>
        <path class="cls-1" d="m26.74,6.04s.02-.07.03-.1c-.02.03-.04.06-.05.09,0,0,.02,0,.02.01Z"/>
        <path class="cls-5" d="m26.18,5.82c.09-.21.37-.35.28-.59-.13-.14-.23-.19-.35-.09-.14.12-.32.61-.25.69.11.11.26.14.32,0Z"/>
        <path class="cls-23" d="m24.44,2.11c-.06.09-.15.15-.27.2-.04.02-.08.03-.12.05.03,0,.07.02.1.07,0,0,.01.02.01.03.1-.08.2-.13.29-.02,0,0,.01-.01.02-.02.04-.04.08-.08.12-.11-.16,0-.2-.03-.17-.2Z"/>
        <path class="cls-23" d="m24.61,2.31s-.08.07-.12.11c0,0-.01.01-.02.02.02.02.03.04.05.07.07-.07.15-.13.22-.2-.05,0-.09,0-.13,0Z"/>
        <path class="cls-23" d="m24.16,2.43s-.07-.06-.1-.07c-.27.14-.47.37-.61.64.17-.17.34-.34.51-.51.05-.05.12-.14.17,0,.02-.01.03-.03.05-.04,0-.01,0-.02-.01-.03Z"/>
        <path class="cls-23" d="m24.44,2.11c-.03.17,0,.2.17.2,0,0,.02-.01.03-.02-.16-.06-.09-.24-.1-.38h0s0,0,0,0c-.02.08-.05.14-.09.2Z"/>
        <path class="cls-23" d="m24.64,2.29s-.02.01-.03.02c.04,0,.08,0,.13,0h0s-.08,0-.1-.02Z"/>
        <path class="cls-23" d="m23.84,2.48c.06-.06.13-.13.21-.11.04-.02.08-.04.12-.05.11-.04.2-.11.27-.2,0-.04.02-.08.03-.12-.14.13-.31.21-.46.32-.2.15-.45.27-.53.53.12-.13.24-.25.37-.36Z"/>
        <path class="cls-23" d="m24.06,2.36c-.08-.02-.15.06-.21.11-.13.11-.25.24-.37.36-.02.05-.03.11-.03.17.14-.28.34-.5.61-.64Z"/>
        <path class="cls-23" d="m24.53,1.92h0s-.04.05-.07.07c-.01.05-.02.09-.03.12.04-.06.07-.12.09-.2Z"/>
        <path class="cls-6" d="m24.62,6.39c.09-.07.16-.14.06-.26h0c-.05.2-.17.19-.3.08-.07-.06-.11-.14-.15-.23-.01.14.05.24.15.33.07.06.13.15.24.07Z"/>
        <path class="cls-6" d="m24.68,6.13c-.25.26-.31-.07-.45-.15.04.08.08.17.15.23.13.12.24.12.3-.08Z"/>
        <path class="cls-10" d="m27.54,5.12c.1-.24.1-.57.52-.32.16.09.17-.08.18-.2.04-.37-.06-.71-.13-1.07-.02-.1-.06-.18.04-.24.11-.06.16.04.24.09.18.12.19.3.22.49.06-.1.14-.2.16-.32-.03-.02-.06-.04-.09-.06-.22-.13-.38-.31-.53-.53-.23-.36-.54-.62-.9-.85.19.23.24.52.2.85-.04.36-.09.71.14,1.04.11.16.03.33-.03.5-.09.26-.25.5-.22.8,0,.03.01.05.02.08.15.02.13-.17.17-.26Z"/>
        <path class="cls-10" d="m27.35,5.3c-.03-.29.12-.54.22-.8.06-.17.14-.34.03-.5-.23-.33-.18-.69-.14-1.04.04-.33-.02-.62-.2-.85-.11-.07-.22-.13-.33-.19.39.28.5.65.43,1.13-.04.28-.15.6.09.87.16.17.12.34.04.55-.1.28-.34.54-.22.88.04.02.07.03.1.04,0-.03-.01-.05-.02-.08Z"/>
        <path class="cls-10" d="m28.15,2.96c.14.22.3.4.53.53.03.02.06.04.09.06,0-.03,0-.06,0-.1-.18-.17-.36-.32-.51-.54-.27-.42-.63-.8-1.14-.94.06.05.1.1.15.15.35.22.67.49.9.85Z"/>
        <path class="cls-10" d="m27.11,1.96c-.06-.02-.12-.03-.18-.04,0,0,0,0,0,0,.11.06.22.12.33.19-.04-.05-.09-.1-.15-.15Z"/>
        <path class="cls-10" d="m28.61,3.86s0,.02,0,.04h0c.12-.08.29-.14.28-.25-.04-.04-.08-.07-.13-.1-.01.12-.1.21-.16.32Z"/>
        <path class="cls-10" d="m28.76,3.45s0,.07,0,.1c.05.03.09.07.13.1,0-.05-.04-.12-.14-.2Z"/>
        <path class="cls-22" d="m27.74,5.31c.17-.07.24.05.28.18.07.22.06.46.16.68.23-.25.49-1.69.41-2.27,0,0,0-.01.01-.02-.16-.11-.1-.38-.35-.44-.07.13,0,.26.02.38.04.21.07.41.07.62-.01.37-.03.41-.42.39-.15,0-.2.08-.25.19-.04.11-.06.23-.14.32-.04.05-.09.1-.14.1.02.12.03.24-.04.36-.03.06-.07.15,0,.19.05.03.09.06.12.09-.09-.21.07-.7.27-.78Z"/>
        <path class="cls-22" d="m27.47,6.09s-.08-.06-.12-.09c-.07-.04-.03-.13,0-.19.06-.12.06-.24.04-.36-.04,0-.08-.02-.12-.11.05.17.1.32-.04.48-.05.06-.1.29.04.28.27-.02.24.21.32.33.08.11.11.25.22.35-.09-.22-.15-.46-.31-.65,0-.01-.02-.03-.02-.04Z"/>
        <path class="cls-22" d="m27.7,6.29c-.41-.31-.09-.57,0-.85.02-.06.06-.11.13-.09.06.01.09.07.1.13.03.22.07.44.1.65.01.09-.01.21.1.23.14.02.2-.1.24-.21.04-.11.05-.23.06-.34.02-.24.11-.46.18-.68.12-.38.22-.82,0-1.23h0s-.01,0-.02-.01c0,0,0,.01-.01.02.07.58-.18,2.01-.41,2.27-.09-.22-.09-.46-.16-.68-.04-.13-.11-.25-.28-.18-.19.08-.36.57-.27.78.18.17.24.41.35.62.02-.16-.03-.34-.12-.41Z"/>
        <path class="cls-22" d="m27.82,6.71c-.11-.21-.17-.45-.35-.62,0,.02.01.03.02.04.16.19.22.43.31.65h0s0-.05.01-.07Z"/>
        <path class="cls-22" d="m27.53,5.35c.08-.09.1-.21.14-.32.04-.11.09-.2.25-.19.38.01.41-.02.42-.39,0-.21-.02-.42-.07-.62-.03-.12-.09-.25-.02-.38.25.06.19.33.35.44,0,0,0-.02.01-.02-.03-.18-.04-.37-.22-.49-.07-.05-.13-.15-.24-.09-.11.06-.06.14-.04.24.07.35.17.7.13,1.07-.01.12-.02.29-.18.2-.42-.24-.42.09-.52.32-.04.09-.02.28-.17.26,0,.02.01.05.02.07.05,0,.1-.05.14-.1Z"/>
        <path class="cls-22" d="m27.39,5.45s0-.05-.02-.07c-.03,0-.06-.01-.1-.04.04.09.08.11.12.11Z"/>
        <path class="cls-22" d="m28.6,3.89s.01,0,.02.01c0-.01,0-.02,0-.04,0,0,0,.02-.01.02Z"/>
        <path class="cls-15" d="m26.04,2.77c.07-.03.15-.05.17-.14-.04-.09-.12-.09-.2-.1.06.06.06.14.02.24Z"/>
        <path class="cls-15" d="m26.01,2.53c.08.01.16.01.2.1-.03.09-.1.11-.17.14,0,.01,0,.02-.01.04.2.11.3-.05.33-.18.04-.18-.15-.16-.27-.17-.07,0-.14,0-.2,0h0c.06.02.1.04.13.07Z"/>
        <path class="cls-15" d="m26.04,2.77c.03-.1.03-.18-.02-.24-.03,0-.05-.01-.08-.02.07.08.04.19.08.28,0,0,.02,0,.02-.01Z"/>
        <path class="cls-15" d="m25.93,2.51s.05.02.08.02c-.03-.03-.07-.05-.13-.07.02.01.04.03.05.04Z"/>
        <path class="cls-15" d="m26.01,2.78s0,.02.01.02c0-.01,0-.02.01-.04,0,0-.02,0-.02.01Z"/>
        <path class="cls-12" d="m26.67,11.71c-.03.15.01.33-.13.44,0,0,0,0,0,0,.08.34.11.68.18,1.02.02.09.03.17.04.24,0-.06,0-.13,0-.21-.07-.65-.19-1.29.01-1.93.04-.11.03-.25.18-.27,0,0,0-.02,0-.03-.29.15-.22.47-.28.73Z"/>
        <path class="cls-12" d="m26.95,10.98s0,.02,0,.03c0,0,.02,0,.02,0h0s.02-.03.03-.05c0,0,0,0,0,0,0,0,0,0,0,0-.02,0-.04.02-.06.03Z"/>
        <path class="cls-12" d="m26.97,11.03s0-.02.01-.03c0,0-.02,0-.02,0,0,0,0,.02.01.03Z"/>
        <path class="cls-12" d="m26.7,11.15c-.18.28-.07.63-.18.93,0,.02.01.04.02.07.14-.11.09-.29.13-.44.06-.26-.01-.58.28-.73,0,0,0-.02,0-.02,0,0,0-.02.01-.03-.17-.05-.19.11-.26.22Z"/>
        <path class="cls-12" d="m26.95,10.96s0,.02,0,.02c.02,0,.04-.02.06-.03,0,0,0,0,0,0-.02,0-.04-.02-.05-.02,0,0,0,.02-.01.03Z"/>
        <path class="cls-19" d="m26.27,14.09s0,0,0,0c-.02.01-.03.03-.05.04-.05.11.13.11.1.21,0,0,0,0,0,0,0,0,0,0,0,0,.66-.07.99-.64.8-1.37-.12-.45-.19-.91-.05-1.37.07-.25.17-.5.26-.75,0,0,0,0,0,0,.3-.41.5-.87.6-1.36.11-.55.48-.86.94-1.1.13-.07.23-.15.34-.23.66-.52.95-1.21.97-2.04.02-.62.07-1.22.26-1.83.23-.74-.06-1.45-.72-1.88-.67-.44-1.48-.69-2.02-1.33,0,0-.02,0-.03,0,.06.07.12.14.18.21-.15.04-.32-.27-.43.04,0,0,0,0,0,0-.01,0-.02,0-.03-.01-.39-.16-.78-.09-1.15.05-.02,0-.04.01-.06.02-.06.09-.04.12.07.11.25-.04.46.08.69.17-.08.16-.3.01-.35.21.12.02.24.05.35.07,0,0,0,0,0,0,0,0,0,0,0,0,.06.01.12.03.18.04.51.15.87.52,1.14.94.15.23.33.37.51.54.1.08.13.15.14.2,0,.12-.17.18-.28.25h0c.23.41.13.85,0,1.23-.07.23-.16.44-.18.68,0,.12-.02.23-.06.34-.04.11-.1.23-.24.21-.12-.02-.09-.14-.1-.23-.03-.22-.07-.44-.1-.65,0-.06-.04-.12-.1-.13-.07-.01-.11.04-.13.09-.09.28-.41.54,0,.85.09.07.14.25.12.41,0,.02,0,.05-.01.07h0s0,0,0,0c-.02.08-.03.17-.05.25h0s.02.08.02.12c0,.22-.14.41-.17.63-.17.32-.33.65-.5.97-.09.17-.17.32-.4.39-.22.07-.42.23-.36.57.06.42.06.85-.03,1.28-.09.4-.03.81.15,1.19.02-.03.03-.07.05-.11.1-.3,0-.64.18-.93.07-.11.09-.27.26-.22.02,0,.03.01.05.02,0,0,0,0,0,0-.01.02-.02.03-.03.05h0s0,.02-.01.03c-.23.45-.24.93-.2,1.42.03.32.09.64.11.97.03.3-.28.64-.6.67Z"/>
        <path class="cls-18" d="m23.99,6.99c0-.07-.05-.13-.12-.16-.08-.03-.12.04-.17.09-.14.14-.15.34-.22.5,0,.53.09,1.03.57,1.36,0,0,0,0,0,0,.07-.6-.09-1.19-.07-1.79Z"/>
        <path class="cls-18" d="m25.55,3.72c.06.08.13.2.24.17.11-.04.09-.17.09-.27.02-.22,0-.44.11-.64,0,0,0,0,0,0,0,0-.01-.02-.02-.03-.02-.05.01-.1.05-.14,0,0,0-.02-.01-.02-.04-.09-.01-.2-.08-.28-.01-.02-.03-.03-.05-.04h0s0,0,0,0c0,0,0,0,0,0h0c-.47.24-.63.83-.33,1.26Z"/>
        <path class="cls-18" d="m23.21,4.77c.04.09.02.24.14.26.13.02.2-.1.23-.22.07-.26.13-.51.2-.77.02-.08,0-.15-.05-.19-.07-.06-.12.01-.19.04-.14.06-.19.24-.35.27h0c.1-.14.17-.28.14-.45h0c.07-.23-.04-.48.1-.7,0-.06.01-.12.03-.17.08-.25.33-.37.53-.53.15-.11.32-.19.46-.32.02-.02.04-.05.07-.07h-.01s-.02-.03-.02-.03c-.02-.02-.04-.04-.06-.06-1.21.27-1.59.86-1.26,1.94.02.14-.02.25-.13.34-.74.44-.92,1.22-.43,1.9.12.16.17.31.13.51-.08.37.07.63.43.77,0,0,0,0,0,0,.1-.32,0-.65.02-.97,0-.11-.04-.2-.1-.29-.39-.55-.52-1.04.05-1.73.18.13,0,.32.07.47Z"/>
        <path class="cls-18" d="m24.68,6.13s0,0,0,0c-.14-.41-.2-.84-.21-1.3-.23.07-.3.22-.31.4-.02.26-.01.51.08.75.14.07.2.41.45.15Z"/>
        <path class="cls-18" d="m24.48,8.12c-.07.31,0,.59.16.86.05.05.11.1.18.1.07,0,.09-.07.08-.13-.02-.29-.05-.58-.18-.84-.03-.06-.08-.14-.15-.12-.04.01-.09.08-.1.13Z"/>
        <path class="cls-18" d="m24.52,2.51s-.03-.05-.05-.07c-.09-.11-.19-.06-.29.02-.02.01-.03.03-.05.04-.07.11-.16.25-.04.34.12.09.18-.08.27-.15.06-.05.11-.12.16-.18h0Z"/>
      </g>
    </g>
  </g>
  <g>
    <path class="cls-3" d="m43.05,21.94l-.1-.09c-.31-.28-.96-.87-1.5-1.63-.17-.25-.31-.47-.42-.7-.53-1.03-.82-1.63-.82-1.64l-.1-.22c-.11-.24-.19-.39-.31-.61-.27-.49-.51-.8-.69-1.06-.05-.07-.1-.13-.14-.19-.19-.27-.29-.47-1.21-3.24-.02-.06-.04-.11-.06-.16v-.03c-.26-.75-.35-1.02-.35-1.04-.08-.27-.15-.52-.21-.74-.17-.63-.3-1.13-.63-1.75-.03-.07-.07-.14-.12-.21,0,0,0-.01,0-.02-.12-.21-.27-.38-.44-.5-.1-.07-.2-.12-.3-.16-.02-.01-.04-.02-.06-.02-.07-.02-.19-.06-.3-.06s-.2.03-.27.09c-.13.11-.15.27-.11.48-.02-.02-.04-.04-.06-.06-.09-.1-.24-.24-.43-.36-.14-.08-.28-.12-.41-.12-.05,0-.1,0-.14.02-.04,0-.08.02-.09.03-.13.05-.24.14-.33.25-.06.08-.11.17-.13.25-.13.39.11.72.39,1.1.14.2.31.42.45.69.15.28.25.55.31.79-.29-.76-.73-1.66-1.34-1.87-.01,0-.03,0-.04-.02,0,0-.02,0-.03,0-.04,0-.09-.02-.15-.03-.02,0-.04,0-.06,0,0,0-.03,0-.03,0-.03,0-.06,0-.09.01,0,0,0,0,0,0-.05,0-.09.03-.16.07-.29.23-.14.75-.06,1.01.02.07.04.13.07.19.02.06.05.12.07.17,0,0,0,.02.01.02.02.05.04.09.07.13.07.12.13.23.2.33l.08.13s.06.1.09.16c.08.15.16.3.23.45.09.2.17.4.23.59.08.23.14.46.18.69l.02.09c.01.08.03.22.04.35-.07-.09-.16-.21-.28-.38l-.14-.21c-.1-.15-.22-.32-.34-.51l-.26-.39c-.08-.12-.15-.22-.22-.31-.1-.13-.17-.23-.25-.3-.09-.09-.22-.2-.41-.2-.02,0-.03,0-.05,0-.25.03-.43.24-.51.41,0,.01-.03.04-.04.07,0,.02-.02.03-.02.05-.17.52.21,1,.74,1.67l.11.14c1.27,1.6,1.58,2.28,1.62,2.57,0,0,0,0,0,0,0,.04,0,.07,0,.08,0,0,0,.04,0,.05-.02.04-.03.06-.06.09-.04.04-.09.08-.16.12-.15.1-.34.23-.55.53-.02.02-.03.04-.04.05-.15.24-.21.42-.24.55-.04.13-.05.17-.13.23-.06.05-.13.07-.23.07-.09,0-.2-.02-.33-.04-.2-.03-.46-.07-.79-.07-.06,0-.13,0-.22,0-.14,0-.28.02-.41.03-.32.04-.72.12-.94.46-.19.29-.23.77.02,1.04.1.11.23.16.39.16.12,0,.24-.02.38-.05.18-.04.39-.08.63-.08.12,0,.23,0,.35.03.25.04.37.1.52.17.16.08.35.17.71.24.17.03.31.04.47.04.12,0,.23,0,.36-.02.12,0,.26-.02.44-.02.19,0,.39-.01.59-.01.6,0,1.28.05,1.77.39.34.24.48.54.73,1.09l.03.07c.57,1.25.85,1.71,1.05,2.05.19.32.32.54.59,1.23.47,1.19.57,1.77.65,2.28.09.51.16.96.59,1.84.13.28.27.52.39.75.28.52.5.94.5,1.28,0,.1-.02.19-.07.29-.11.23-.29.32-.7.52-.13.06-.28.13-.45.22-.83.43-1.18.74-1.52,1.04-.29.26-.57.5-1.16.81-.68.36-1.05.41-1.44.47-.42.06-.85.13-1.64.55-.31.16-.56.32-.78.46-.09.06-.18.12-.27.17-.52.05-.85.14-1.03.28-.05-.02-.11-.04-.16-.05-.05-.01-.1-.02-.16-.02-.07,0-.15.01-.22.03-.04.01-.09.03-.13.06-.06-.01-.11-.03-.17-.05-.26-.09-.45-.23-.55-.4-.04-.07-.04-.1-.02-.29.02-.17.05-.42.04-.86,0-.54-.01-.97,0-1.25l.19-.07c.19.2.32.28.43.28.04,0,.08,0,.11-.03.16-.08.14-.25.12-.42-.02-.13-.04-.31-.02-.56,0-.06,0-.11.01-.15.01-.11.02-.2-.02-.33-.07-.21-.23-.38-.48-.5.03-.09.05-.16.07-.21.14-.42.05-.9-.83-2.6-.21-.4-.41-.78-.61-1.12-.02-.05-.07-.09-.12-.11-.29-.07-.54-.13-.76-.17h0c.06-.01.12-.03.2-.04.03,0,.06-.01.09-.02.03,0,.06-.01.09-.02.06-.01.11-.05.13-.11.02-.06.02-.12-.02-.17-.36-.55-.56-.71-.72-.8-.36-.22-.77-.36-1.23-.41-.03-.02-.06-.03-.09-.03h-.82s-.06,0-.08.03c-.2.03-.39.07-.58.12-.24.07-.46.17-.66.29-.16.1-.36.26-.72.8-.03.05-.04.11-.02.17s.07.1.13.11c0,0,.32.06.38.07-.21.04-.45.1-.75.17-.05.01-.1.05-.12.1-.17.3-.38.67-.61,1.13-.88,1.71-.97,2.19-.83,2.6.01.05.04.11.07.21-.25.13-.41.29-.48.5-.04.12-.03.21-.02.33,0,.04,0,.09.01.15.02.25,0,.43-.02.56-.02.17-.04.33.12.41.03.02.07.03.11.03.12,0,.25-.08.43-.28l.19.07c0,.21,0,.61,0,1.25,0,.16,0,.27.01.36,0,.09.01.15,0,.22-.05.33-.27.66-.66.98-.05-.01-.1-.02-.14-.02-.02,0-.05,0-.06,0-.1.01-.19.06-.28.13-.07,0-.12,0-.13,0h-.05c-.52,0-.84-.21-1.32-.52-.23-.15-.48-.31-.81-.48-.79-.42-1.22-.49-1.64-.55-.39-.06-.76-.12-1.44-.47-.58-.31-.86-.55-1.15-.81-.34-.3-.69-.61-1.52-1.04-.17-.09-.32-.16-.45-.22-.25-.12-.44-.21-.56-.32-.06-.05-.11-.12-.15-.2-.03-.07-.05-.14-.06-.24,0-.08,0-.17.02-.26.06-.29.24-.63.47-1.05.12-.23.26-.48.39-.76.43-.89.5-1.33.59-1.85.09-.51.18-1.09.65-2.27.27-.69.4-.9.59-1.23.2-.34.48-.8,1.05-2.05l.05-.11c.24-.53.38-.82.71-1.06.18-.12.37-.21.61-.27.31-.08.68-.12,1.18-.12.19,0,.38,0,.57.01.18,0,.32.01.44.02.13,0,.24.02.36.02.15,0,.3-.01.47-.04.36-.07.54-.16.71-.24.15-.07.27-.13.52-.17.12-.02.23-.03.35-.03.25,0,.45.04.63.08.14.03.26.05.38.05.16,0,.29-.05.39-.16.23-.24.21-.63.09-.91-.02-.04-.04-.09-.07-.13-.28-.44-.85-.47-1.38-.49-.07,0-.14,0-.2,0-.33,0-.59.04-.79.07-.13.02-.24.04-.33.04-.1,0-.16-.02-.23-.07-.07-.05-.09-.1-.12-.23-.04-.13-.09-.31-.25-.55-.22-.34-.43-.48-.59-.58-.12-.08-.18-.12-.22-.21-.05-.13,0-.64,1.62-2.7l.1-.13c.53-.67.92-1.15.75-1.67-.04-.13-.12-.26-.21-.36-.09-.09-.19-.15-.3-.17,0,0,0,0,0,0-.02,0-.04,0-.05-.01-.02,0-.03,0-.05,0-.33,0-.55.33-.93.88l-.02.02c-.19.28-.35.53-.5.74,0,0-.01.02-.01.03-.19.28-.34.49-.45.63,0-.14.03-.29.04-.35,0,0,.01-.06.01-.06l-.18-.03h.18c.11-.64.38-1.31.8-1.99l.05-.07c.13-.2.28-.44.39-.79.1-.34.21-.81-.06-1.01-.07-.06-.17-.09-.28-.09-.1,0-.19.02-.25.04-.03,0-.06.02-.05.02-.15.05-.29.15-.42.28-.14.13-.28.31-.41.54-.19.32-.36.7-.49,1.05,0-.02.02-.07.02-.07.07-.25.17-.49.29-.72.14-.27.3-.49.44-.68.09-.13.18-.25.25-.37.1-.17.23-.43.14-.73-.08-.26-.3-.47-.55-.53-.05-.01-.1-.02-.15-.02-.09,0-.18.02-.26.06,0,0-.01,0-.02,0-.17.07-.31.18-.39.26-.05.04-.1.09-.13.13l-.03.03s-.04.04-.06.06c.04-.21.02-.37-.11-.48-.07-.06-.16-.1-.28-.1-.1,0-.21.03-.29.05,0,0-.02,0-.02,0-.53.17-.8.69-.92.91-.07.13-.14.28-.21.44-.18.43-.29.82-.41,1.27l-.09.34c-.04.14-.08.29-.12.45,0,.03-.09.28-.21.64l-.19.57c-.93,2.79-1.02,2.98-1.21,3.24-.04.06-.09.12-.14.19-.19.25-.42.57-.69,1.06-.13.24-.21.41-.34.68l-.07.15s-.29.61-.82,1.64c-.56,1.1-1.52,1.97-1.93,2.34l-.09.08c-1.75,1.63-5.44,7.38-3.74,11.3.34.79,1.19,1.63,2.89,3.32l.02.02c1.54,1.52,3.02,2.68,3.31,2.89.9.69,1.51,1.07,1.96,1.35.6.38.9.57,1.3,1.08.2.24.38.57.54.97,0,0,0,0,0,0,.02.05.04.11.06.16-.2.65-.15,1.37-.09,2.37.04.62.08,1.33.09,2.21,0,2.41-.31,3.87-.52,4.83-.2.9-.32,1.45-.02,2,0,0,.01.03.03.04.04.08.1.16.14.22.43.57,1.04.81,2.02.81.67,0,1.48-.11,2.49-.25.97-.13,2.07-.28,3.38-.38.93-.07,1.92-.11,2.93-.11.91,0,1.83.04,2.72.11,1.29.09,2.37.24,3.33.36,1,.13,1.8.24,2.46.24.97,0,1.54-.23,1.92-.78.05-.07.09-.15.13-.22.03-.06.06-.13.08-.2.08-.26.09-.55.04-.89h0s0-.03,0-.04c-.07-.37-.21-.76-.37-1.22-.43-1.19-.96-2.66-.66-4.91.1-.73.25-1.32.39-1.85.25-.97.45-1.74.08-2.61.22-.51.43-.78.5-.86.4-.51.7-.7,1.3-1.08.1-.07.22-.14.34-.22.34-.22.88-.57,1.61-1.13.14-.1.71-.54,1.44-1.18l.03-.02s.05-.04.09-.07l.04-.04c.65-.56,1.21-1.08,1.71-1.59l.03-.03c1.7-1.68,2.55-2.53,2.89-3.32,1.7-3.92-1.99-9.67-3.74-11.3Zm-16.2,5.25s0,0,.03,0c.04,0,.1.01.15.04-.07,0-.13.01-.17.03,0,0,0,0,0,0,0-.02,0-.06,0-.06Zm.64,1.35c.19.28.26.59.25.73-.05-.03-.12-.09-.18-.13-.26-.2-.61-.47-1.07-.47h0c-.47,0-.83.29-1.08.47-.06.04-.13.1-.18.13,0-.14.06-.46.25-.74.21-.31.59-.56.92-.61.01,0,.02,0,.04,0,.02,0,.03,0,.04,0h.02s.05,0,.08,0c.19.03.42.14.62.31.11.09.21.19.28.3Zm-1.38-1.3s-.1-.02-.16-.03c.06-.02.11-.04.15-.04,0,0,.02,0,.02,0,0,.02,0,.04,0,.06,0,0,0,0,0,0Z"/>
    <g>
      <g>
        <path class="cls-11" d="m42.93,22.07c-.27-.25-1.02-.89-1.62-1.75-.14.18-.32.32-.52.31-.55-.01-.65-1.18-1.64-2.88-.88-1.5-1.32-1.45-1.64-2.47-.33-1.03-.26-2.24.02-2.86-.22-.67-.33-1.01-.35-1.04-.3-1.02-.39-1.63-.82-2.47-.03-.07-.07-.14-.12-.21h0c-.09-.16-.22-.33-.39-.45-.08-.06-.17-.11-.27-.14.07.29.14.63.29,1.01.45,1.22,1.05,1.6.82,2.06-.12.24-.44.43-.74.42.01.12.01.19,0,.2-.01,0-.05-.08-.09-.21-.1-.29-.26-.83-.32-1.03-.37-1.23-.42-1.63-.82-2.06-.07-.07-.21-.22-.37-.31,0,0-.01,0-.02-.01-.13-.08-.28-.12-.43-.09-.02,0-.04.01-.06.02.09.36.17.84.38,1.42.45,1.22,1.05,1.6.82,2.06-.06.12-.16.21-.28.29,0,.2-.02.32-.05.33,0,0,0,0-.01,0-.02-.02-.06-.11-.1-.24-.23-.65-.74-2.35-1.53-2.63-.02,0-.04-.01-.07-.02-.07-.02-.17-.04-.26-.01h0s-.05.02-.08.04c-.2.16-.05.65,0,.82.04.13.08.24.13.34,0,0,0,0,0,0,.09.19.19.34.28.48.14.22.65,1.05.82,2.06,0,.02,0,.05.02.1.02.14.05.36.05.53,0,.1-.02.18-.07.2-.06.02-.23-.19-.54-.63-.18-.26-.41-.6-.69-1.02-.21-.3-.36-.53-.5-.67h0c-.11-.11-.21-.16-.32-.15-.16.02-.3.17-.37.33,0,.01-.02.02-.02.04.02,0,.05,0,.07.02.21.07.35.23.47.47h0c.2.37.38.91.76,1.52.76,1.2,1.51,1.48,1.35,2.02-.03.11-.1.22-.2.31,0,.05,0,.1,0,.13h0s-.01.07-.02.09c-.02.06-.05.1-.09.14-.16.17-.42.21-.7.65-.01.01-.02.02-.03.04-.29.46-.18.64-.41.82-.34.26-.7-.05-1.64,0-.14,0-.29.02-.43.03.01.12.05.23.13.3.28.28.75-.16,1.64-.04.56.08.58.28,1.24.38.47.07.65,0,1.23-.03.86-.05,1.8-.09,2.47.35.41.27.56.61.86,1.21,1.17,2.39,1.12,1.8,1.72,3.24,1.01,2.39.46,2.38,1.34,4.08.59,1.14,1.16,1.8.88,2.45-.16.37-.48.46-1.14.81,0,.12-.02.24-.08.36-.17.38-.51.45-1.23.82-1.54.8-1.39,1.18-2.67,1.85-1.44.76-1.58.22-3.08,1.03-.45.24-.77.47-1.07.65-.28.17-.53.3-.84.35-.07.01-.15.02-.23.02-.04,0-.08,0-.12,0-.02,0-.07,0-.16,0-.16-.01-.4-.05-.64-.13-.25-.09-.5-.24-.64-.49-.14-.24.02-.31,0-1.23-.01-.74-.01-1.15,0-1.38l.42-.16c.26.3.37.33.41.3.09-.05-.03-.3,0-.82.01-.22.04-.29,0-.41-.07-.21-.26-.34-.41-.41h-.13c.06-.2.1-.34.13-.41.12-.35.06-.77-.82-2.47-.23-.46-.44-.83-.62-1.13h0c-.83-.21-1.28-.28-1.53-.29-.03,0-.11,0-.11-.02,0-.04.34-.11.8-.2.09-.02.19-.04.29-.05.06-.01.12-.02.18-.03-.37-.55-.55-.68-.67-.74-.43-.26-.87-.36-1.23-.39v-.02h-.82v.02c-.19.02-.39.06-.61.12,0,0-.02.03-.04.06-.05.06-.09.12-.13.19-.04.07-.08.15-.13.23-.02.04-.05.08-.07.12-.01.02-.02.05-.04.07-.02.04-.05.07-.07.11-.01.02-.02.05-.04.07,0,0,0,0,0,0-.05.09-.1.18-.15.28.39.07.67.14.67.17,0,.02-.08.02-.11.02-.15,0-.37.04-.7.1-.09.18-.18.37-.29.58-.83,1.71-.89,2.14-.76,2.49.02.07.07.21.14.41h-.13c-.15.08-.34.21-.4.42-.04.12,0,.19,0,.41.05.52-.07.78.02.82.05.02.15,0,.4-.31l.42.14c0,.08,0,.21.01.35h0c0,.24.01.58.01,1.03,0,.92.16.99.03,1.23-.26.5-.99.62-1.29.65,0,.02-.02.05-.04.09-.13.23-.37.38-.61.47-.06.02-.12.04-.18.06-.05.01-.1.02-.14.03-.25.05-.46.05-.5.05h-.05c-.83-.01-1.21-.49-2.21-1.03-1.5-.81-1.64-.27-3.08-1.03-1.28-.67-1.13-1.05-2.67-1.85-.52-.27-.84-.38-1.04-.56-.08-.07-.14-.15-.19-.26-.09-.2-.1-.4-.05-.61.1-.49.49-1.06.88-1.85.83-1.73.29-1.7,1.23-4.11.57-1.46.54-.87,1.64-3.29.28-.6.42-.95.82-1.23.2-.14.42-.23.67-.3.08-.1.17-.19.29-.28.65-.48,1.6-.48,2.45-.47.58,0,.77.07,1.23-.03.65-.14.67-.34,1.22-.44.3-.06.55-.05.77-.02-.02-.04-.04-.07-.06-.11-.23-.36-.76-.39-1.23-.41-.94-.05-1.3.26-1.64,0-.23-.18-.12-.37-.41-.82-.36-.57-.69-.51-.82-.82-.06-.15-.17-.58,1.64-2.88.55-.7.97-1.18.82-1.64-.03-.1-.09-.21-.17-.28-.06-.06-.13-.1-.21-.12h0c-.02.21-.07.44-.12.61-.31.97-1.25,1.56-1.75,1.67-.11.14-.18.19-.21.18-.04-.01-.06-.09-.06-.18,0-.16.02-.4.05-.54h0s.01-.07.02-.09c.18-1,.69-1.83.82-2.06.14-.21.3-.44.41-.82.05-.17.2-.67,0-.82-.11-.09-.28-.04-.37-.01-.02,0-.03,0-.04.01-.13.05-.25.13-.36.24-.16.28-.35.68-.55,1.2-.41,1.07-.21,1.58-.41,1.64-.04.01-.09,0-.14-.02-.02-.15-.04-.3-.05-.45-.06.16-.1.26-.12.26-.05-.01-.1-.58.1-1.29,0,0,0,0,0-.01.07-.24.17-.49.3-.75.24-.46.53-.78.7-1.06.12-.2.18-.39.12-.58-.06-.19-.22-.37-.41-.41-.04,0-.08-.01-.12-.01.02.07.03.14.03.22,0,.32-.19.51-.41.82,0,0-.41.57-.82,1.64-.11.29-.18.54-.22.75-.09-.12-.18-.25-.27-.39-.1.33-.21.67-.24.67-.02,0,0-.36.1-.89.07-.34.17-.74.31-1.17.29-.87.62-1.46.41-1.64-.11-.09-.3-.03-.41,0h0c-.05.09-.1.17-.14.25-.31.63-.43,1.13-.58,1.78-.05.22-.11.45-.18.71,0,.03-.07.25-.21.7-.05.15-.11.33-.17.54-.87,2.83-.95,3.03-1.15,3.32-.19.28-.46.63-.79,1.25-.15.28-.22.46-.39.83,0,0-.28.61-.78,1.66-.59,1.23-1.66,2.2-1.99,2.52-1.83,1.79-5.12,7.52-3.42,11.19.35.75,1.22,1.57,2.96,3.21,1.64,1.55,3.2,2.68,3.36,2.8,2.14,1.55,2.6,1.46,3.35,2.38.03.04.07.08.1.14-.22.16-.42.37-.62.63-.2.27-.33.53-.41.81.27.65.54,1.63.67,3.1.11,1.29.14,3.35-.51,5.93-.08.34-.18.69-.3,1.05-.12.39-.25.79-.41,1.2,0,0,0,0,0,.01,0,0,0,.02,0,.02h.02c.14,0,.27.01.41.02.46.02.91.04,1.36.05.26.01.51.02.77.03.1,0,.2,0,.3.01.59.02,1.19.05,1.78.07.1,0,.2,0,.3.01h0c.45.02.9.04,1.36.05.53.02,1.06.05,1.59.07.02,0,.05,0,.08,0,.58.02,1.15.05,1.72.07.19,0,.38.02.58.02h.82c.15,0,.3-.01.45-.02.68-.03,1.36-.05,2.03-.08.07,0,.14,0,.21,0,1.61-.07,3.21-.13,4.82-.19.44-.02.89-.04,1.34-.05.43-.02.86-.04,1.29-.05.05,0,.09,0,.14,0-.02-.06-.05-.12-.06-.17-.1-.26-.19-.53-.27-.78,0,0,0-.02-.01-.03-.17-.54-.32-1.06-.44-1.56-.09-.37-.16-.73-.23-1.07-.35-1.96-.32-3.54-.23-4.6.13-1.53.42-2.54.7-3.19.21-.51.42-.79.53-.92.49-.63.86-.81,1.69-1.34.4-.26.92-.6,1.6-1.13.09-.07.65-.5,1.43-1.17,0,0,.02-.02.05-.04.03-.02.07-.05.12-.09.51-.44,1.1-.98,1.7-1.58,1.7-1.69,2.55-2.53,2.88-3.29,1.61-3.71-1.82-9.36-3.7-11.1Zm-16.18,4.97c.08-.06.24-.05.39.03.14.07.28.18.34.34.07.16.05.35,0,.37-.07.02-.13-.3-.37-.37-.17-.05-.28.07-.37,0,0,0-.02-.02-.02-.03-.07-.09-.06-.27.02-.34Zm-1.26.37c.14-.31.59-.49.74-.37.09.08.09.3,0,.37-.09.07-.2-.05-.37,0-.24.07-.3.39-.37.37-.05-.02-.07-.21,0-.37Zm2.36,2.06c-.21.13-.65-.6-1.36-.61-.71,0-1.16.74-1.36.61-.16-.1-.07-.64.21-1.03.23-.34.66-.63,1.02-.68.02,0,.05,0,.07,0,.02,0,.04,0,.05,0,.04,0,.08,0,.12,0,.23.03.49.16.71.35.12.1.23.21.32.34.27.39.36.93.21,1.03Z"/>
        <g>
          <path class="cls-13" d="m42.1,29.94c-.16.37-.48.46-1.14.81,0-.54-.45-1.16-.9-2.1-.83-1.73-.28-1.7-1.23-4.11-.57-1.46-.53-.87-1.64-3.29-.28-.6-.42-.95-.82-1.23-.66-.46-1.61-.44-2.47-.41-.58.02-.77.08-1.23,0-.65-.12-.67-.32-1.23-.41-.89-.14-1.37.29-1.64,0-.18-.2-.15-.59,0-.82.16-.25.47-.34.81-.38.01.12.05.23.13.3.28.28.75-.16,1.64-.04.56.08.58.28,1.24.38.47.07.65,0,1.23-.03.86-.05,1.8-.09,2.47.35.41.27.56.61.86,1.21,1.17,2.39,1.12,1.8,1.72,3.24,1.01,2.39.46,2.38,1.34,4.08.59,1.14,1.16,1.8.88,2.45Z"/>
          <path class="cls-13" d="m24.95,26.35c.07.01.15.02.22.04l-.37.24c-.18-.04-.39-.07-.62-.12.37-.55.55-.68.67-.74.21-.12.42-.21.62-.27-.05.07-.51.85-.51.85Z"/>
          <path class="cls-13" d="m36.67,41.6c-.14.55-.27,1.1-.41,1.64-.86-.49-2.55-1.6-3.7-3.7-.57-1.03-.85-2.01-.99-2.75.06-.12.14-.3.16-.54.02-.23-.02-.32,0-.41.05-.19.38-.38,1.64-.41-.12.08-.25.19-.39.32,0,0-.25.24-.41.48-.25.36,1.38,2.64,4.09,5.37Z"/>
          <path class="cls-13" d="m25.57,26.8c-.33.48-1.19,1.79-1.64,2.88-.07.16-.16.4-.19.72-.07.65.16,1.18.32,1.49,0,.08,0,.2.01.35.05,1.04.23,1.81.27,1.96.37,1.71-.96,4.38,0,5.76,1.09,1.55,4.5.61,4.52.82.02.23-3.92,2.21-6.17,0-1.19-1.17-1.51-3.13-.82-4.93.69-.49.88-.93.93-1.25.02-.17-.02-.29-.02-.6.02-.74.01-1.15,0-1.38l-.42-.16c-.26.3-.36.33-.41.3-.09-.05.03-.3,0-.82-.01-.22-.04-.29,0-.41.07-.21.26-.34.41-.41h.13c-.06-.2-.11-.34-.13-.41-.12-.35-.05-.77.82-2.47.24-.46.44-.83.62-1.13h0c.34-.08.61-.14.83-.19.31-.04.62-.08.93-.12Z"/>
          <path class="cls-13" d="m23.2,19.19c-.28.29-.75-.14-1.64,0-.56.09-.58.29-1.23.41-.46.08-.65.02-1.23,0-.6-.02-1.24-.03-1.8.12.08-.1.17-.19.29-.28.65-.48,1.6-.48,2.45-.47.58,0,.77.07,1.23-.03.65-.14.67-.34,1.22-.44.3-.06.55-.05.77-.02.1.23.11.55-.06.72Z"/>
          <path class="cls-13" d="m17.29,41.24s.07.08.1.14c-.22.16-.42.37-.62.63-.2.27-.33.53-.41.81-.23-.56-.45-.87-.57-1.02-.72-.94-1.19-.87-3.29-2.47-.16-.12-1.69-1.29-3.29-2.88-1.7-1.69-2.55-2.53-2.88-3.29-1.6-3.71,1.83-9.36,3.7-11.1.34-.31,1.43-1.25,2.06-2.47.53-1.04.82-1.64.82-1.64.18-.37.26-.54.41-.82.35-.62.62-.95.82-1.23.21-.29.3-.48,1.23-3.29.27-.8.4-1.2.41-1.23.05-.16.09-.31.12-.45.17-.6.28-1.07.5-1.59.06-.14.12-.28.2-.43.15-.29.39-.69.82-.82-.05.09-.1.17-.14.25-.31.63-.43,1.13-.58,1.78-.05.22-.11.45-.18.71,0,.03-.07.25-.21.7-.05.15-.11.33-.17.54-.87,2.83-.95,3.03-1.15,3.32-.19.28-.46.63-.79,1.25-.15.28-.22.46-.39.83,0,0-.28.61-.78,1.66-.59,1.23-1.66,2.2-1.99,2.52-1.83,1.79-5.12,7.52-3.42,11.19.35.75,1.22,1.57,2.96,3.21,1.64,1.55,3.2,2.68,3.36,2.8,2.14,1.55,2.6,1.46,3.35,2.38Z"/>
          <path class="cls-13" d="m12.29,31.38c-.53.22-1.33.31-1.93-.05-.74-.45-1.01-1.5-.82-1.64.11-.08.36.17.82.41.6.31,1.19.4,1.68.42-.05.21-.04.42.05.61.05.11.11.19.19.26Z"/>
          <path class="cls-13" d="m19,8.3c0,.32-.19.51-.41.82,0,0-.41.57-.82,1.64-.11.29-.18.54-.22.75-.09-.12-.18-.25-.27-.39.07-.23.14-.45.17-.56.37-1.23.42-1.63.82-2.06.04-.04.09-.09.15-.14.09-.09.21-.18.34-.23h0c.07-.03.14-.05.21-.05.02.07.03.14.03.22Z"/>
          <path class="cls-13" d="m19.55,9.57c-.16.28-.35.68-.55,1.2-.41,1.07-.21,1.58-.41,1.64-.04.01-.09,0-.14-.02-.02-.15-.04-.3-.05-.45,0,0,0,0,0,0,.14-.42.41-1.25.78-1.87.12-.19.24-.37.38-.5Z"/>
          <path class="cls-13" d="m21.18,11.39c-.02.21-.07.44-.12.61-.31.97-1.25,1.56-1.75,1.67.12-.15.29-.39.52-.72h0c.15-.21.31-.46.5-.74.37-.54.57-.85.82-.82.01,0,.02,0,.03,0Z"/>
          <path class="cls-13" d="m32.65,12.21c.28.42.51.76.69,1.02-.5-.12-.92-.84-1.19-1.69.14.14.3.37.5.67Z"/>
          <path class="cls-13" d="m34.21,12.82c-.06.12-.18.23-.31.3,0-.05-.01-.08-.02-.1-.18-1-.68-1.83-.82-2.06-.09-.14-.19-.29-.28-.48,0,0,0,0,0,0-.05-.1-.09-.21-.13-.34-.05-.17-.2-.67,0-.82.02-.02.05-.03.08-.04h0c.09-.02.19,0,.26.01.1.36.17.86.39,1.46.18.5.39.86.56,1.13.24.41.39.65.26.92Z"/>
          <path class="cls-13" d="m35.03,11.59c-.06.12-.16.21-.28.29,0-.38-.09-1.04-.46-1.73-.42-.78-.97-1.17-.82-1.64.02-.07.06-.14.1-.19.07-.09.15-.16.25-.2.09.36.17.84.38,1.42.45,1.22,1.05,1.6.82,2.06Z"/>
          <path class="cls-13" d="m36.67,11.18c-.12.24-.44.43-.74.42-.02-.34-.14-1.06-.41-1.86-.29-.87-.62-1.46-.41-1.64.11-.09.3-.03.41,0,.01,0,.02,0,.04.02.07.29.14.63.29,1.01.45,1.22,1.05,1.6.82,2.06Z"/>
          <path class="cls-13" d="m34.1,15.78c-.03.11-.1.22-.2.31-.05-.31-.35-1-1.66-2.65-.55-.7-.97-1.18-.82-1.64,0-.02.01-.03.02-.05.02,0,.05,0,.07.02.21.07.35.23.47.47h0c.2.37.38.91.76,1.52.76,1.2,1.51,1.48,1.35,2.02Z"/>
          <path class="cls-13" d="m41.3,20.32c-.14.18-.32.32-.52.31-.55-.01-.65-1.18-1.64-2.88-.88-1.5-1.32-1.45-1.64-2.47-.33-1.03-.26-2.24.02-2.86.02.06.05.12.07.19.94,2.81,1.03,3,1.23,3.29.2.28.48.62.82,1.23.16.28.23.46.41.82,0,0,.29.6.82,1.64.13.25.28.49.43.72Z"/>
        </g>
      </g>
      <g>
        <path class="cls-20" d="m21.93,35.72c0,1.02-.19,2.26-.96,3.35-.39.55-.81.89-1.21,1.16.13-.12.25-.25.38-.41.97-1.18,1.2-2.62,1.23-3.7.07-.16.21-.39.41-.41.05,0,.1,0,.15.02Z"/>
        <g>
          <path class="cls-20" d="m37.18,54.24c-.02.06-.05.12-.07.18-.03.07-.07.14-.12.2-.91,1.32-3.14.43-7.54.11-.83-.07-1.74-.11-2.73-.11-1.08,0-2.06.04-2.95.11-4.48.35-6.68,1.29-7.74-.11-.05-.07-.1-.14-.13-.21,0,0-.01-.02-.02-.02-.56-1.07.58-2.17.56-6.76,0-2.35-.31-3.54,0-4.53.08-.28.21-.54.41-.81.2-.27.4-.47.62-.63.31-.23.65-.39.99-.57-.21.18-.41.4-.59.69-.05.09-.1.18-.15.26-.59,1.2-.08,2.31.14,5.1.33,4.32-.59,5.62-.15,6.61.02.03.03.07.05.1.05.1.12.19.2.29.14.16.3.29.48.38.58.31,1.34.28,2.38.09.88-.15,1.95-.41,3.28-.67,1.26-.24,2.75-.47,4.52-.6,3.94-.28,6.61.15,8.28.08.11,0,.21,0,.31-.02,0,0,0,.02,0,.03.05.29.05.55-.03.8Z"/>
          <path class="cls-20" d="m37.21,53.41c-1.64.14-4.4-.37-8.59-.07-6.5.47-9.27,2.37-10.66.79-.96-1.09.28-2.1-.1-7-.23-2.98-.8-4.05.01-5.36.18-.29.38-.51.59-.69.42-.21.85-.44,1.29-.85,0,0,0,0,.01,0,.41-.27.82-.6,1.21-1.16.77-1.09.96-2.33.96-3.35.31.11.59.64.67.81.87,1.68-.33,3.07.41,4.11.41.57,1.13.66,2.47.82,1.18.14,2.57.32,3.7-.41.67-.43,1.16-1.12,1.44-1.95.3-.88.38-1.92.21-2.98.02-.04.13-.32.41-.41.09-.03.19-.03.28-.01.21.04.42.19.54.42.1,1.16.44,2.8,1.64,4.11,1.17,1.28,2.26,1.26,2.88,2.47.68,1.33-.13,2.37-.41,4.52-.42,3.17.81,4.9,1.04,6.19Z"/>
          <path class="cls-3" d="m37.21,53.41c-1.64.14-4.4-.37-8.59-.07-6.5.47-9.27,2.37-10.66.79-.96-1.09.28-2.1-.1-7-.23-2.98-.8-4.05.01-5.36.18-.29.38-.51.59-.69.42-.21.85-.44,1.29-.85,0,0,0,0,.01,0,.41-.27.82-.6,1.21-1.16.77-1.09.96-2.33.96-3.35.31.11.59.64.67.81.87,1.68-.33,3.07.41,4.11.41.57,1.13.66,2.47.82,1.18.14,2.57.32,3.7-.41.67-.43,1.16-1.12,1.44-1.95.69-.85,1-2.08.9-3.4.21.04.42.19.54.42.1,1.16.44,2.8,1.64,4.11,1.17,1.28,2.26,1.26,2.88,2.47.68,1.33-.13,2.37-.41,4.52-.42,3.17.81,4.9,1.04,6.19Z"/>
          <g>
            <path class="cls-8" d="m24.19,46.04c.26.11.39.18.65.29-.13-.39-.19-.58-.32-.97-.13.27-.19.41-.32.68Z"/>
            <path class="cls-8" d="m29.47,46.06c.26-.07.39-.1.65-.14-.13-.31-.19-.46-.32-.76-.13.36-.19.54-.32.9Z"/>
            <path class="cls-8" d="m32.3,46.22c.26.08.39.13.65.22-.13-.37-.19-.56-.32-.93-.13.29-.19.43-.32.71Z"/>
            <path class="cls-8" d="m34.66,47.59c-.45-1.03-.67-1.6-1.12-2.75-.1-.25-.32-.46-.56-.54-.28-.09-.42-.14-.71-.24-.24-.08-.46,0-.56.2-.2.41-.3.62-.5,1.05-.2-.5-.3-.74-.5-1.21-.1-.23-.32-.37-.56-.33-.28.04-.42.07-.7.15-.24.07-.46.29-.56.54-.01.04-.02.05-.03.09-.07-.23-.31-.34-.59-.25-.87.29-1.3.46-2.17.3-.3-.05-.55.07-.6.34-.02-.06-.04-.1-.06-.16-.1-.26-.32-.49-.56-.59-.28-.12-.42-.19-.71-.31-.2-.09-.38-.06-.5.06,0,0,0,0,0-.01-.11-.2-.3-.36-.49-.41-.27-.07-.41-.09-.68-.09-.22,0-.41.14-.52.34-.11-.16-.31-.22-.52-.15-.26.09-.39.15-.66.26-.22.09-.41.3-.52.53-.11-.13-.31-.16-.52-.07-.29.12-.44.17-.74.24-.19.04-.38.16-.49.32-.12.16-.15.36-.09.55.33,1.02.49,1.5.82,2.43.08.23.31.33.58.22.31-.13.46-.2.77-.34.2-.09.38-.26.49-.46.11.11.29.13.49.07.31-.09.46-.13.76-.15.13,0,.25-.04.35-.1.1.08.22.14.35.16.29.06.44.11.73.23.25.1.48.05.57-.14.02-.04.03-.06.05-.1.09.04.14.06.24.11.02.05.03.08.05.14.09.27.32.53.57.63.3.12.45.17.74.23,0,0,.02,0,.03,0,.02,0,.03,0,.05.01.91.17,1.36-.02,2.27-.32.29-.1.44-.15.73-.24.25-.08.48-.29.57-.55.02-.05.03-.08.05-.13.09-.02.14-.03.24-.05.02.04.03.06.05.11.09.22.32.33.57.32.55-.02.82.05,1.37.21.25.07.48,0,.57-.21.02-.04.03-.06.05-.1.09.03.14.05.24.08.02.05.03.08.05.13.09.26.32.49.57.57.3.09.45.13.74.18.21.04.4-.05.51-.22.11-.17.13-.39.05-.58Zm-13.08-.83c-.19-.57-.29-.84-.49-1.39-.2.71-.3,1.06-.5,1.78-.31.14-.46.21-.77.34-.33-.89-.49-1.34-.82-2.3.29-.07.44-.12.74-.24.2.57.3.86.51,1.42.21-.75.32-1.13.54-1.88.26-.11.39-.17.66-.26.2.59.31.89.51,1.51.21-.7.32-1.05.53-1.71.27,0,.41.02.68.09-.33.94-.49,1.43-.82,2.48-.31.02-.46.05-.76.15Zm3.66.77c-.08-.23-.12-.35-.2-.58-.43-.18-.64-.29-1.07-.47-.08.17-.12.25-.2.42-.29-.11-.44-.16-.73-.23.45-.93.67-1.35,1.11-2.18.28.12.42.19.71.31.3.81.44,1.21.74,1.99.15.4.23.59.38.97-.21-.05-.32-.08-.54-.16-.08-.03-.12-.05-.21-.08Zm1.36.3c-.22,0-.32,0-.54-.05v-.46c.1-.11.15-.16.26-.27.4-.45.61-.72,1.01-1.29-.5.1-.74.13-1.24.04v-.58c.87.16,1.3-.02,2.17-.3v.46c-.51.78-.76,1.17-1.27,1.85.37-.05.55-.1.92-.21.16-.05.24-.08.41-.13v.57c-.24.08-.36.12-.6.19-.45.12-.67.17-1.12.18Zm6.76-.24c-.08-.22-.12-.34-.2-.56-.43-.14-.64-.22-1.07-.35-.08.18-.12.26-.2.44-.55-.16-.82-.23-1.37-.21-.08-.2-.12-.3-.2-.49-.43.04-.64.1-1.07.23-.08.22-.12.34-.2.56-.05.02-.08.02-.13.04-.24.08-.36.12-.6.2.17-.46.26-.69.43-1.14.27-.72.41-1.08.68-1.78.28-.08.42-.11.7-.15.43.92.64,1.41,1.07,2.46.42-.91.64-1.33,1.06-2.17.28.09.42.14.71.24.45,1.17.67,1.76,1.12,2.87-.3-.05-.45-.09-.74-.18Z"/>
          </g>
        </g>
      </g>
    </g>
  </g>
  <g>
    <path class="cls-3" d="m51.85,55.15c-.27-.39-.42-.6-.7-1.01-.13.14-.3.23-.51.28-.16.04-.3.02-.42-.05-.12-.07-.2-.2-.24-.38-.16-.7-.28-1.24-.4-1.77.1-.02.21-.05.32-.07.25-.05.52-.12.82-.19-.02-.07-.03-.14-.05-.2-.09-.38-.15-.62-.25-1.05-.43.1-.79.18-1.12.26-.07-.32-.15-.67-.24-1.07-.57.13-.9.2-1.39.3-.1.02-.2.04-.32.07.07.32.12.6.18.87.02.07.03.14.04.21-.13.03-.26.05-.4.08-.1.02-.21.04-.32.06.1.5.15.76.25,1.26.26-.05.5-.1.73-.15.11.54.23,1.09.37,1.8.13.61.4,1.04.84,1.26.43.23.98.27,1.64.12.24-.05.47-.13.67-.23.21-.1.38-.21.52-.35-.01-.01-.02-.03-.03-.04Zm-4.67,1.05c-.08-.41-.15-.75-.21-1.08-.08-.41-.16-.82-.26-1.36,0,0,0-.01,0-.02-.15-.77-.48-1.28-.99-1.56-.51-.28-1.17-.34-1.97-.21-.39.07-.77.18-1.15.35-.24.1-.46.22-.65.35-.11.07-.21.15-.31.23.3.42.45.63.76,1.06.15-.14.35-.27.59-.4.24-.12.48-.19.72-.23.37-.06.65-.03.85.08.12.07.21.16.27.29.03.06.06.13.08.21-.35.06-.6.1-1,.17-.52.09-.93.21-1.25.38-.11.06-.2.12-.29.18-.16.13-.29.27-.37.43-.13.25-.17.52-.13.82.04.27.15.51.33.72.05.06.12.12.18.17.15.12.34.21.56.27.31.09.67.1,1.08.03.13-.02.24-.04.35-.08.29-.08.52-.21.7-.36.07-.06.13-.13.18-.2.02-.02.03-.04.04-.06.05-.09.1-.18.13-.27.01.05.02.1.03.15,0,0,0,0,0,.01.02.14.05.28.08.47.68-.12,1.01-.18,1.69-.31-.01-.07-.03-.15-.04-.21Zm-3.48-1.06s.1-.08.17-.11c.1-.05.24-.09.41-.11.32-.05.51-.09.77-.14.01.07.02.15.04.22.01.06.02.12.03.19-.02.11-.05.2-.1.29-.04.08-.1.14-.17.2-.15.12-.32.2-.52.23-.2.03-.36.02-.49-.04,0,0-.02,0-.02-.01-.14-.07-.21-.18-.24-.32-.02-.15.02-.28.12-.39Zm-2.25,1.99c-.06-.41-.09-.68-.16-1.15-1.39.19-2.08.28-3.48.42-.05-.44-.09-.81-.12-1.15.1-.01.21-.02.3-.03.95-.1,1.56-.17,2.62-.32-.01-.09-.02-.16-.03-.23-.05-.38-.09-.64-.15-1.08-1.16.15-1.77.23-2.89.34-.04-.32-.07-.65-.11-1.05.1-.01.2-.02.3-.03,1.11-.12,1.75-.2,2.95-.36-.01-.09-.02-.16-.03-.23-.06-.41-.09-.68-.16-1.15-1.88.26-2.87.37-4.67.53-.1.01-.2.02-.3.03.22,2.53.34,3.79.56,6.31,2.17-.19,3.25-.31,5.4-.61-.01-.08-.02-.16-.03-.23Zm-6.5-1.52c-.02-.2-.05-.4-.11-.58-.08-.26-.2-.49-.36-.71-.02-.03-.04-.06-.07-.08-.27-.32-.6-.57-1.01-.75-.45-.18-.93-.27-1.48-.24-.55.03-1.03.16-1.44.4-.17.09-.32.2-.46.32-.16.14-.3.29-.43.47,0,0-.01.01-.02.02-.03.04-.06.08-.08.12-.23.39-.34.83-.33,1.33.01.48.15.92.41,1.29.26.38.62.67,1.07.87.45.2.97.29,1.54.26.57-.03,1.08-.17,1.51-.41.28-.16.51-.35.7-.57.11-.12.2-.26.28-.4.23-.4.32-.84.27-1.33Zm-3.86-.41c.09-.16.2-.29.34-.38.01,0,.02-.02.03-.02.08-.05.16-.09.25-.12.09-.02.18-.04.28-.05.2-.01.38.02.54.1.04.02.07.04.1.06.12.08.23.18.31.31.11.16.17.37.18.62.02.25-.02.46-.11.65-.02.05-.05.1-.09.15,0,0,0,0,0,0-.07.11-.16.2-.27.27-.16.1-.34.15-.54.16-.2.01-.38-.02-.56-.11-.16-.08-.3-.21-.41-.39-.11-.17-.16-.38-.18-.63,0-.25.03-.46.12-.64Zm-1.77-1.76c0-.1,0-.18,0-.27-.01-.41-.02-.68-.03-1.15-2.2.06-3.34.06-5.45,0-.09,0-.18,0-.27,0-.01.47-.02.74-.03,1.14,0,.09,0,.18,0,.28-.26,0-.5-.01-.81-.03-.05,0-.1,0-.15,0-.47,1.03-.79,1.73-1.17,2.51-.07.14-.14.29-.21.44-.38-1.04-.65-1.81-1.08-3.07-.58-.04-.93-.06-1.42-.1-.12,0-.24-.02-.38-.03.7,2.06,1.08,3.12,1.85,5.11,0,.01-.02.02-.02.04-.07.11-.15.2-.23.25-.12.08-.28.11-.49.1-.14,0-.29-.04-.43-.11-.12-.05-.22-.11-.31-.18-.02-.02-.04-.03-.07-.05-.29.46-.44.69-.74,1.14.17.15.4.27.68.37.28.1.56.16.84.18.35.02.68,0,.98-.09.3-.08.57-.23.82-.46.06-.06.12-.12.18-.19,0,0,0,0,0,0,.18-.2.34-.46.49-.77.99-2.01,1.46-3.01,2.37-5.04.05,0,.1,0,.15,0,.35,0,.68.01,1.13.02-.02,1.96-.03,2.95-.05,4.92.77,0,1.15,0,1.92,0,0-.09,0-.18,0-.27-.01-1.79-.02-2.77-.04-4.64.1,0,.19,0,.28,0,.62,0,1.01-.01,1.7-.03Zm-11.89,1.93c-.16-.12-.35-.22-.56-.29-.21-.07-.42-.13-.63-.18-.21-.05-.41-.1-.58-.14-.17-.05-.31-.1-.42-.16-.1-.06-.15-.14-.14-.24s.08-.17.22-.22c.02,0,.04-.01.06-.02.13-.04.33-.04.59-.01.22.02.45.07.69.14.24.07.48.19.72.36.07-.13.13-.23.19-.33.15-.26.26-.47.44-.8-.24-.16-.53-.29-.88-.39-.35-.1-.7-.18-1.05-.21-.53-.05-.98-.03-1.35.07-.3.08-.54.2-.74.35-.05.04-.1.09-.15.13-.22.22-.35.48-.39.79-.03.28,0,.51.07.7.09.19.21.35.38.48.17.12.36.23.57.31.21.08.43.15.63.2.21.05.4.09.59.13.18.04.32.09.43.15.1.05.15.13.14.21h0c-.01.12-.08.2-.2.25-.12.05-.34.06-.65.03-.31-.03-.62-.11-.94-.23-.28-.11-.52-.23-.74-.38-.03-.02-.05-.03-.08-.05-.27.44-.4.66-.68,1.1.24.18.56.34.97.48.41.15.84.24,1.28.29.57.06,1.05.03,1.45-.08.4-.11.71-.28.92-.5.04-.04.07-.07.09-.11.15-.2.24-.42.26-.67.02-.28-.02-.52-.11-.7-.1-.19-.23-.34-.4-.46Zm-5.34-2.42c-.4-.43-.99-.7-1.8-.82-.39-.06-.79-.07-1.2-.04-.27.02-.53.07-.76.13-.11.03-.22.07-.32.11.15.5.23.74.38,1.24.19-.09.42-.15.69-.18.26-.03.51-.03.76,0,.37.06.63.18.78.35.07.08.12.17.14.27.03.1.04.21.03.32-.36-.05-.6-.09-1-.16-.52-.08-.95-.09-1.3-.04-.29.05-.53.14-.71.29,0,0,0,0,0,0-.04.02-.07.05-.1.08-.2.19-.33.43-.38.73-.02.12-.03.23-.02.34,0,.15.04.3.11.45.11.26.29.47.56.65.27.18.61.31,1.02.37.18.03.35.04.5.04.24,0,.46-.05.64-.12.21-.09.38-.22.51-.4-.03.21-.06.38-.09.64.68.1,1.02.15,1.7.24,0-.05.02-.11.02-.16,0-.05.01-.1.02-.15.12-.89.19-1.42.32-2.39.1-.77-.05-1.37-.44-1.8Zm-3.08,2.51s.01-.07.02-.09c.04-.11.11-.19.21-.24.02,0,.04-.02.06-.02.13-.04.32-.04.57,0,.31.05.5.08.77.12-.02.13-.04.27-.06.41,0,.02-.02.03-.03.05-.09.16-.22.26-.38.33-.04.02-.08.03-.12.04-.14.03-.29.04-.45.02-.21-.03-.37-.1-.47-.22-.11-.11-.15-.24-.12-.38Zm-6.24-6.19c-.07-.01-.13-.03-.2-.05-.59,2.46-.89,3.7-1.48,6.16,2.13.51,3.2.74,5.34,1.14.02-.12.04-.22.06-.32.07-.36.12-.62.2-1.06-1.38-.26-2.07-.4-3.44-.7.1-.43.18-.79.25-1.13.07.02.14.03.2.04.99.22,1.6.34,2.69.56.02-.12.04-.22.06-.32.06-.34.11-.59.19-.99-1.15-.22-1.75-.35-2.86-.59.07-.31.14-.64.23-1.03.07.02.14.03.2.05,1.15.25,1.79.38,3.01.61.02-.12.04-.22.06-.32.07-.36.12-.62.2-1.06-1.9-.36-2.89-.57-4.72-1.01Z"/>
    <g>
      <path class="cls-17" d="m7.48,50.28c-.08.43-.13.7-.2,1.06-.02.1-.04.2-.06.32-1.22-.23-1.86-.36-3.01-.61-.07-.02-.13-.03-.2-.05-.09.39-.16.72-.23,1.03,1.1.25,1.71.37,2.86.59-.08.4-.13.65-.19.99-.02.1-.04.2-.06.32-1.09-.21-1.7-.33-2.69-.56-.07-.01-.13-.03-.2-.04-.08.34-.16.7-.25,1.13,1.37.31,2.06.45,3.44.7-.08.43-.13.7-.2,1.06-.02.1-.04.2-.06.32-2.14-.4-3.21-.63-5.34-1.14.59-2.46.89-3.7,1.48-6.16.07.02.13.03.2.05,1.83.44,2.81.65,4.72,1.01Z"/>
      <path class="cls-17" d="m12.09,52.96c-.4-.43-.99-.7-1.8-.82-.39-.06-.79-.07-1.2-.04-.27.02-.53.07-.76.13-.11.03-.22.07-.32.11.15.5.23.74.38,1.24.19-.09.42-.15.69-.18.26-.03.51-.03.76,0,.37.06.63.18.78.35.07.08.12.17.14.27.03.1.04.21.03.32-.36-.05-.6-.09-1-.16-.52-.08-.95-.09-1.3-.04-.29.05-.53.14-.71.29,0,0,0,0,0,0-.04.02-.07.05-.1.08-.2.19-.33.43-.38.73-.02.12-.03.23-.02.34,0,.15.04.3.11.45.11.26.29.47.56.65.27.18.61.31,1.02.37.18.03.35.04.5.04.24,0,.46-.05.64-.12.21-.09.38-.22.51-.4-.03.21-.06.38-.09.64.68.1,1.02.15,1.7.24,0-.05.02-.11.02-.16,0-.05.01-.1.02-.15.12-.89.19-1.42.32-2.39.1-.77-.05-1.37-.44-1.8Zm-3.08,2.51s.01-.07.02-.09c.04-.11.11-.19.21-.24.02,0,.04-.02.06-.02.13-.04.32-.04.57,0,.31.05.5.08.77.12-.02.13-.04.27-.06.41,0,.02-.02.03-.03.05-.09.16-.22.26-.38.33-.04.02-.08.03-.12.04-.14.03-.29.04-.45.02-.21-.03-.37-.1-.47-.22-.11-.11-.15-.24-.12-.38Z"/>
      <path class="cls-17" d="m17.82,55.83c.09.19.13.42.11.7-.02.25-.1.47-.26.67-.03.04-.06.08-.09.11-.21.23-.52.39-.92.5-.4.11-.88.13-1.45.08-.44-.05-.87-.14-1.28-.29-.41-.14-.73-.31-.97-.48.27-.44.41-.66.68-1.1.02.02.05.04.08.05.21.15.46.27.74.38.32.12.63.2.94.23.31.03.52.02.65-.03.12-.05.19-.13.2-.24h0c0-.1-.04-.17-.14-.22-.1-.06-.24-.11-.43-.15-.18-.04-.38-.08-.59-.13-.21-.05-.42-.12-.63-.2-.21-.08-.41-.18-.57-.31-.16-.12-.29-.28-.38-.48-.08-.19-.11-.43-.07-.7.04-.31.17-.57.39-.79.05-.05.1-.09.15-.13.2-.15.44-.27.74-.35.37-.1.82-.13,1.35-.07.35.04.7.11,1.05.21.35.1.65.24.88.39-.18.33-.3.54-.44.8-.05.1-.12.21-.19.33-.24-.17-.48-.29-.72-.36-.24-.07-.47-.12-.69-.14-.26-.03-.46-.02-.59.01-.02,0-.04.01-.06.02-.13.05-.21.12-.22.22s.04.18.14.24c.11.06.25.12.42.16.17.04.36.09.58.14.21.05.42.11.63.18.21.07.4.17.56.29.17.12.3.27.4.46Z"/>
      <path class="cls-17" d="m27.62,53.48c-.09,0-.18,0-.28,0,.01,1.87.02,2.86.04,4.64,0,.09,0,.18,0,.27-.77,0-1.15,0-1.92,0,.02-1.97.03-2.95.05-4.92-.46,0-.79,0-1.13-.02-.05,0-.1,0-.15,0-.91,2.03-1.38,3.03-2.37,5.04-.15.31-.32.57-.49.77,0,0,0,0,0,0-.06.07-.12.13-.18.19-.25.23-.52.38-.82.46-.3.08-.62.11-.98.09-.27-.02-.56-.08-.84-.18-.28-.1-.51-.23-.68-.37.3-.45.45-.68.74-1.14.02.02.04.04.07.05.09.07.19.13.31.18.14.06.28.1.43.11.21.01.37-.02.49-.1.09-.05.16-.14.23-.25,0-.01.01-.02.02-.04-.76-1.99-1.15-3.05-1.85-5.11.14.01.26.02.38.03.49.04.84.06,1.42.1.43,1.26.7,2.04,1.08,3.07.07-.15.15-.3.21-.44.38-.78.7-1.48,1.17-2.51.05,0,.1,0,.15,0,.32.01.56.02.81.03,0-.1,0-.2,0-.28.01-.4.02-.67.03-1.14.09,0,.18,0,.27,0,2.11.06,3.25.06,5.45,0,.01.47.02.75.03,1.15,0,.08,0,.17,0,.27-.69.02-1.08.02-1.7.03Z"/>
      <path class="cls-17" d="m34.95,55.61c-.02-.2-.05-.4-.11-.58-.08-.26-.2-.49-.36-.71-.02-.03-.04-.06-.07-.08-.27-.32-.6-.57-1.01-.75-.45-.18-.93-.27-1.48-.24-.55.03-1.03.16-1.44.4-.17.09-.32.2-.46.32-.16.14-.3.29-.43.47,0,0-.01.01-.02.02-.03.04-.06.08-.08.12-.23.39-.34.83-.33,1.33.01.48.15.92.41,1.29.26.38.62.67,1.07.87.45.2.97.29,1.54.26.57-.03,1.08-.17,1.51-.41.28-.16.51-.35.7-.57.11-.12.2-.26.28-.4.23-.4.32-.84.27-1.33Zm-3.86-.41c.09-.16.2-.29.34-.38.01,0,.02-.02.03-.02.08-.05.16-.09.25-.12.09-.02.18-.04.28-.05.2-.01.38.02.54.1.04.02.07.04.1.06.12.08.23.18.31.31.11.16.17.37.18.62.02.25-.02.46-.11.65-.02.05-.05.1-.09.15,0,0,0,0,0,0-.07.11-.16.2-.27.27-.16.1-.34.15-.54.16-.2.01-.38-.02-.56-.11-.16-.08-.3-.21-.41-.39-.11-.17-.16-.38-.18-.63,0-.25.03-.46.12-.64Z"/>
      <path class="cls-17" d="m41.48,57.37c-2.16.3-3.24.42-5.4.61-.22-2.53-.34-3.79-.56-6.31.1,0,.2-.02.3-.03,1.8-.16,2.79-.27,4.67-.53.07.47.1.74.16,1.15.01.07.02.15.03.23-1.19.16-1.84.24-2.95.36-.1.01-.2.02-.3.03.04.4.08.74.11,1.05,1.12-.12,1.73-.19,2.89-.34.06.44.1.7.15,1.08.01.07.02.15.03.23-1.07.15-1.67.22-2.62.32-.1.01-.2.02-.3.03.04.35.08.71.12,1.15,1.39-.15,2.09-.23,3.48-.42.07.47.1.74.16,1.15.01.07.02.15.03.23Z"/>
      <path class="cls-17" d="m47.18,56.2c-.08-.41-.15-.75-.21-1.08-.08-.41-.16-.82-.26-1.36,0,0,0-.01,0-.02-.15-.77-.48-1.28-.99-1.56-.51-.28-1.17-.34-1.97-.21-.39.07-.77.18-1.15.35-.24.1-.46.22-.65.35-.11.07-.21.15-.31.23.3.42.45.63.76,1.06.15-.14.35-.27.59-.4.24-.12.48-.19.72-.23.37-.06.65-.03.85.08.12.07.21.16.27.29.03.06.06.13.08.21-.35.06-.6.1-1,.17-.52.09-.93.21-1.25.38-.11.06-.2.12-.29.18-.16.13-.29.27-.37.43-.13.25-.17.52-.13.82.04.27.15.51.33.72.05.06.12.12.18.17.15.12.34.21.56.27.31.09.67.1,1.08.03.13-.02.24-.04.35-.08.29-.08.52-.21.7-.36.07-.06.13-.13.18-.2.02-.02.03-.04.04-.06.05-.09.1-.18.13-.27.01.05.02.1.03.15,0,0,0,0,0,.01.02.14.05.28.08.47.68-.12,1.01-.18,1.69-.31-.01-.07-.03-.15-.04-.21Zm-3.48-1.06s.1-.08.17-.11c.1-.05.24-.09.41-.11.32-.05.51-.09.77-.14.01.07.02.15.04.22.01.06.02.12.03.19-.02.11-.05.2-.1.29-.04.08-.1.14-.17.2-.15.12-.32.2-.52.23-.2.03-.36.02-.49-.04,0,0-.02,0-.02-.01-.14-.07-.21-.18-.24-.32-.02-.15.02-.28.12-.39Z"/>
      <path class="cls-17" d="m51.88,55.19c-.14.14-.31.26-.52.35-.21.1-.43.17-.67.23-.66.15-1.21.11-1.64-.12-.43-.23-.71-.65-.84-1.26-.15-.71-.26-1.26-.37-1.8-.23.05-.46.09-.73.15-.1-.51-.15-.76-.25-1.26.11-.02.22-.04.32-.06.14-.03.27-.05.4-.08-.01-.07-.03-.14-.04-.21-.05-.27-.11-.55-.18-.87.12-.02.22-.04.32-.07.49-.1.82-.17,1.39-.3.09.4.17.75.24,1.07.34-.08.7-.16,1.12-.26.1.43.16.67.25,1.05.01.06.03.13.05.2-.3.07-.57.13-.82.19-.11.03-.21.05-.32.07.12.52.24,1.07.4,1.77.04.18.12.31.24.38.12.07.26.09.42.05.21-.05.38-.14.51-.28.28.41.43.62.7,1.01,0,.01.02.03.03.04Z"/>
    </g>
    <g>
      <path class="cls-9" d="m4.01,50.99c-.09.39-.16.72-.23,1.03,1.1.25,1.71.37,2.86.59-.08.4-.13.65-.19.99-1.03-.2-1.63-.32-2.68-.56-.02.1-.05.21-.07.32-.07-.01-.13-.03-.2-.04-.08.34-.16.7-.25,1.13,1.37.31,2.06.45,3.44.7-.08.43-.13.7-.2,1.06-2-.38-3.07-.6-5.12-1.1.56-2.36.86-3.59,1.4-5.84,1.83.44,2.81.65,4.72,1.01-.08.43-.13.7-.2,1.06-1.15-.22-1.79-.35-3-.62-.02.11-.05.22-.07.32-.07-.02-.13-.03-.2-.05Z"/>
      <path class="cls-9" d="m12.09,52.96c-.4-.43-.99-.7-1.8-.82-.39-.06-.79-.07-1.2-.04-.27.02-.53.07-.76.13.12.39.2.64.33,1.07.19-.09.42-.15.69-.18.26-.03.51-.03.76,0,.37.06.63.18.78.35.13.15.19.35.17.59-.11-.02-.21-.03-.3-.05.03.1.04.21.03.32-.36-.05-.6-.09-1-.16-.52-.08-.95-.09-1.3-.04-.29.05-.53.14-.71.29-.11.15-.18.34-.22.54-.02.12-.03.23-.02.34,0,.15.04.3.11.45.11.26.29.47.56.65.27.18.61.31,1.02.37.18.03.35.04.5.04.24,0,.46-.05.64-.12.21-.09.38-.22.51-.4-.03.21-.06.38-.09.64.6.09.93.14,1.47.21.12-.89.19-1.42.32-2.39.1-.77-.05-1.37-.44-1.8Zm-1.23,2.41c-.08.14-.18.25-.31.32-.09.16-.22.26-.38.33-.04.02-.08.03-.12.04-.14.03-.29.04-.45.02-.21-.03-.37-.1-.47-.22-.11-.11-.15-.24-.12-.38,0-.03.01-.07.02-.09.04-.11.11-.19.21-.24.02,0,.04-.02.06-.02,0,0,0,0,0-.01.04-.11.11-.19.21-.24.13-.06.34-.07.63-.02.31.05.5.08.77.12-.02.13-.04.27-.06.41Z"/>
      <path class="cls-3" d="m10.64,55.23c-.02.13-.04.27-.06.41,0,.02-.02.03-.03.05-.09.16-.22.26-.38.33-.04.02-.08.03-.12.04-.14.03-.29.04-.45.02-.21-.03-.37-.1-.47-.22-.11-.11-.15-.24-.12-.38,0-.03.01-.07.02-.09.04-.11.11-.19.21-.24.02,0,.04-.02.06-.02.13-.04.32-.04.57,0,.31.05.5.08.77.12Z"/>
      <path class="cls-9" d="m17.82,55.83c.09.19.13.42.11.7-.02.25-.1.47-.26.67-.19.15-.44.26-.74.34-.4.11-.88.13-1.45.08-.44-.05-.87-.14-1.28-.29-.41-.14-.73-.31-.97-.48.2-.32.32-.52.48-.77.21.15.46.27.74.38.32.12.63.2.94.23.31.03.52.02.65-.03.12-.05.19-.13.2-.24h0s.05-.03.07-.04c.12-.05.19-.13.2-.24,0-.09-.04-.16-.14-.22-.1-.06-.24-.11-.43-.15-.18-.04-.38-.08-.59-.13-.21-.05-.42-.12-.63-.2-.21-.08-.41-.18-.57-.31-.16-.12-.29-.28-.38-.48-.08-.19-.11-.43-.07-.7.03-.25.12-.46.26-.65.2-.15.44-.27.74-.35.37-.1.82-.13,1.35-.07.35.04.7.11,1.05.21.35.1.65.24.88.39-.18.33-.3.54-.44.8-.21-.14-.42-.24-.63-.3-.24-.07-.47-.12-.69-.14-.3-.03-.51-.02-.65.03-.13.05-.21.12-.22.22,0,.01,0,.03,0,.04-.02,0-.04.01-.06.02-.13.05-.21.12-.22.22s.04.18.14.24c.11.06.25.12.42.16.17.04.36.09.58.14.21.05.42.11.63.18.21.07.4.17.56.29.17.12.3.27.4.46Z"/>
      <path class="cls-9" d="m27.62,53.48c-.09,0-.18,0-.28,0,.01,1.87.02,2.86.04,4.64-.59,0-.97,0-1.64,0,.02-1.97.03-2.95.05-4.92-.52,0-.88-.01-1.29-.02-.04.09-.09.19-.12.28-.05,0-.1,0-.15,0-.91,2.03-1.38,3.03-2.37,5.04-.15.31-.32.57-.49.77,0,0,0,0,0,0-.22.18-.46.31-.72.37-.3.08-.62.11-.98.09-.27-.02-.56-.08-.84-.18-.28-.1-.51-.23-.68-.37.22-.33.36-.54.53-.81.09.07.19.13.31.18.14.06.28.1.43.11.21.01.37-.02.49-.1.09-.05.16-.14.23-.25.02,0,.03-.02.04-.02.09-.06.18-.16.25-.29-.73-1.89-1.11-2.94-1.74-4.81.49.04.84.06,1.42.1.43,1.26.7,2.04,1.08,3.07.07-.15.15-.3.21-.44.02.05.04.11.06.17.44-.9.77-1.62,1.26-2.67.32.01.56.02.81.03,0-.1,0-.2,0-.28.09,0,.18,0,.27,0,.01-.47.02-.74.03-1.14,2.11.06,3.25.06,5.45,0,.01.47.02.75.03,1.15-.62.02-1.01.02-1.7.02,0,.09,0,.18,0,.27Z"/>
      <path class="cls-9" d="m34.95,55.61c-.02-.2-.05-.4-.11-.58-.08-.26-.2-.49-.36-.71-.02-.03-.04-.06-.07-.08-.27-.32-.6-.57-1.01-.75-.45-.18-.93-.27-1.48-.24-.55.03-1.03.16-1.44.4-.17.09-.32.2-.46.32-.05.06-.1.13-.15.19,0,0-.01.01-.02.02-.03.04-.06.08-.08.12-.23.39-.34.83-.33,1.33.01.48.15.92.41,1.29.26.38.62.67,1.07.87.45.2.97.29,1.54.26.57-.03,1.08-.17,1.51-.41.16-.09.3-.19.43-.3.11-.12.2-.26.28-.4.23-.4.32-.84.27-1.33Zm-1.66.49c-.09.18-.21.33-.36.42,0,0,0,0,0,0-.07.11-.16.2-.27.27-.16.1-.34.15-.54.16-.2.01-.38-.02-.56-.11-.16-.08-.3-.21-.41-.39-.11-.17-.16-.38-.18-.63,0-.25.03-.46.12-.64.09-.16.2-.29.34-.38.08-.12.18-.22.31-.3.08-.05.16-.09.25-.12.09-.02.18-.04.28-.05.2-.01.38.02.54.1.04.02.07.04.1.06.12.08.23.18.31.31.11.16.17.37.18.62.02.25-.02.46-.11.65Z"/>
      <path class="cls-3" d="m33.02,56.38c-.02.05-.05.1-.09.15,0,0,0,0,0,0-.07.11-.16.2-.27.27-.16.1-.34.15-.54.16-.2.01-.38-.02-.56-.11-.16-.08-.3-.21-.41-.39-.11-.17-.16-.38-.18-.63,0-.25.03-.46.12-.64.09-.16.2-.29.34-.38.01,0,.02-.02.03-.02.08-.05.16-.09.25-.12.09-.02.18-.04.28-.05.2-.01.38.02.54.1.04.02.07.04.1.06.12.08.23.18.31.31.11.16.17.37.18.62.02.25-.02.46-.11.65Z"/>
      <path class="cls-3" d="m52.78,54.57c-.29-.42-.44-.63-.72-1.05-.19-.27-.47-.46-.79-.48-.03,0-.07,0-.1,0-.09,0-.18.01-.27.03v-.04s.05-.01.08-.02c.28-.07.52-.24.67-.48.15-.25.2-.54.14-.83l-.24-1-.06-.25c-.09-.37-.35-.65-.68-.77-.12-.05-.25-.07-.38-.07-.08,0-.16,0-.25.03-.02,0-.05.01-.05.01-.12-.51-.56-.85-1.07-.85-.08,0-.16,0-.24.03-.67.15-1.01.22-1.69.36-.29.06-.53.23-.69.47-.16.24-.21.54-.16.82v.07c-.12.08-.24.19-.34.33-.04.05-.07.12-.1.18-.41-.16-.87-.24-1.36-.24-.29,0-.6.03-.93.08-.47.08-.94.22-1.4.42-.18.08-.34.16-.51.25l-.08-.6c-.04-.29-.2-.55-.43-.72-.19-.15-.42-.22-.66-.22-.05,0-.1,0-.15,0-1.65.23-2.6.34-4.04.48-.04,0-.09,0-.14.01-.23.02-.47.04-.74.07-.29.03-.56.16-.74.38-.19.22-.27.51-.25.79l.1,1.14c-.22-.16-.45-.29-.71-.4-.52-.22-1.09-.33-1.7-.33-.09,0-.18,0-.27,0-.54.03-1.03.14-1.48.32v-.49c-.02-.29-.14-.56-.35-.76-.2-.19-.47-.3-.75-.3h-.03c-1.18.03-1.98.04-2.76.04-.82,0-1.66-.02-2.89-.05h-.03c-.59,0-1.07.46-1.09,1.06v.35c-.4.03-.74.26-.9.62-.09.2-.17.38-.26.55-.06-.18-.12-.37-.19-.57-.14-.42-.52-.71-.96-.74-.71-.04-1.07-.07-1.78-.13h-.09c-.16,0-.32.04-.47.11-.08-.03-.16-.06-.25-.09-.05-.02-.1-.03-.15-.05-.31-.09-.61-.16-.91-.2-.12-.02-.23-.04-.35-.05-.08,0-.16-.01-.23-.02-.13-.01-.27-.02-.39-.02-.41,0-.79.05-1.13.14-.51.14-.93.37-1.26.67-.09-.14-.18-.26-.27-.35-.56-.6-1.38-.99-2.43-1.16-.31-.05-.62-.07-.93-.07-.18,0-.35,0-.54.02-.2.02-.38.04-.56.08l.12-.6c.05-.28,0-.58-.17-.82-.16-.24-.41-.4-.7-.46-1.96-.37-2.92-.58-4.86-1.04-.09-.02-.17-.03-.25-.03-.2,0-.4.05-.57.16-.06.04-.12.08-.18.13-.15.14-.26.33-.31.54l-.2.8L.03,55.14c-.14.58.22,1.17.81,1.31,2.13.51,3.24.75,5.39,1.15.07.01.13.02.2.02.22,0,.43-.07.61-.19.01,0,.02-.02.03-.02.07.06.14.12.23.17.4.27.89.45,1.45.55.23.04.44.05.65.05.18,0,.35-.01.51-.04.12.08.26.13.41.15.63.09.97.14,1.56.22.05,0,.1.01.16.02.05,0,.09.01.14.01.24,0,.47-.09.66-.23.22.12.47.23.74.32.49.17,1,.29,1.53.35.23.02.46.04.67.04.09,0,.17,0,.26,0,.33-.01.63-.06.92-.14-.08.13-.14.27-.16.41-.06.37.07.75.37,1,.27.24.61.43,1.02.57.38.14.76.22,1.13.24.1,0,.2,0,.3,0,.36,0,.71-.04,1.03-.13.36-.1.69-.26,1-.49.09-.07.18-.14.27-.23.35-.32.65-.74.92-1.28.65-1.32,1.09-2.23,1.57-3.27l-.02,2.68c0,.6.48,1.09,1.08,1.1.41,0,.71,0,1.02,0,.27,0,.55,0,.91,0,.29,0,.57-.12.77-.32.2-.21.32-.48.31-.77v-.91c.06.12.13.24.21.36.38.54.89.96,1.53,1.24.54.24,1.13.35,1.76.35.09,0,.18,0,.27,0,.74-.04,1.41-.23,1.99-.56.31-.17.57-.37.8-.6.06.22.18.41.35.56.2.16.45.26.7.26.03,0,.07,0,.1,0,.63-.05,1.17-.1,1.68-.15,1.24-.12,2.25-.25,3.78-.46.29-.04.54-.2.72-.42,0,0,.01-.02.02-.03.07.02.13.05.2.07.02,0,.04.02.07.02.27.07.56.11.87.11.22,0,.44-.02.68-.06.41-.07.78-.18,1.1-.35.08.02.16.03.24.03.07,0,.13,0,.19-.02.68-.12,1.02-.19,1.71-.32.28-.05.53-.22.7-.46.11-.16.17-.36.18-.56.08.06.16.11.24.15.41.22.89.33,1.42.33.31,0,.63-.04.97-.12.32-.07.61-.17.89-.3.32-.15.6-.34.84-.57.37-.37.43-.96.13-1.39Zm-48.56-3.53c-.07-.02-.13-.03-.2-.05-.09.39-.16.72-.23,1.03,1.1.25,1.71.37,2.86.59-.08.4-.13.65-.19.99-.02.1-.04.2-.06.32-1.09-.21-1.7-.33-2.69-.56-.07-.01-.13-.03-.2-.04-.08.34-.16.7-.25,1.13,1.37.31,2.06.45,3.44.7-.08.43-.13.7-.2,1.06-.02.1-.04.2-.06.32-2.14-.4-3.21-.63-5.34-1.14.59-2.46.89-3.7,1.48-6.16.07.02.13.03.2.05,1.83.44,2.81.65,4.72,1.01-.08.43-.13.7-.2,1.06-.02.1-.04.2-.06.32-1.22-.23-1.86-.36-3.01-.61Zm8.32,3.71c-.13.97-.2,1.51-.32,2.39,0,.05-.01.1-.02.15,0,.05-.01.11-.02.16-.68-.09-1.02-.14-1.7-.24.04-.26.06-.43.09-.64-.13.18-.3.31-.51.4-.18.08-.4.12-.64.12-.15,0-.32-.01-.5-.04-.41-.07-.75-.19-1.02-.37-.27-.18-.45-.4-.56-.65-.06-.15-.1-.3-.11-.45,0-.11,0-.22.02-.34.05-.3.18-.54.38-.73.03-.03.07-.06.1-.08,0,0,0,0,0,0,.18-.15.42-.24.71-.29.35-.06.79-.05,1.3.04.41.07.65.1,1,.16.01-.12,0-.23-.03-.32-.02-.1-.07-.19-.14-.27-.15-.17-.41-.29-.78-.35-.24-.04-.49-.04-.76,0-.26.04-.49.1-.69.18-.15-.5-.23-.74-.38-1.24.1-.04.21-.08.32-.11.23-.07.49-.11.76-.13.41-.03.81-.02,1.2.04.81.13,1.4.4,1.8.82s.55,1.02.44,1.8Zm5.05,2.56c-.21.23-.52.39-.92.5-.4.11-.88.13-1.45.08-.44-.05-.87-.14-1.28-.29-.41-.14-.73-.31-.97-.48.27-.44.41-.66.68-1.1.02.02.05.04.08.05.21.15.46.27.74.38.32.12.63.2.94.23.31.03.52.02.65-.03.12-.05.19-.13.2-.24h0c0-.1-.04-.17-.14-.22-.1-.06-.24-.11-.43-.15-.18-.04-.38-.08-.59-.13-.21-.05-.42-.12-.63-.2-.21-.08-.41-.18-.57-.31-.16-.12-.29-.28-.38-.48-.08-.19-.11-.43-.07-.7.04-.31.17-.57.39-.79.05-.05.1-.09.15-.13.2-.15.44-.27.74-.35.37-.1.82-.13,1.35-.07.35.04.7.11,1.05.21.35.1.65.24.88.39-.18.33-.3.54-.44.8-.05.1-.12.21-.19.33-.24-.17-.48-.29-.72-.36-.24-.07-.47-.12-.69-.14-.26-.03-.46-.02-.59.01-.02,0-.04.01-.06.02-.13.05-.21.12-.22.22s.04.18.14.24c.11.06.25.12.42.16.17.04.36.09.58.14.21.05.42.11.63.18.21.07.4.17.56.29.17.12.3.27.4.46.09.19.13.42.11.7-.02.25-.1.47-.26.67-.03.04-.06.08-.09.11Zm10.04-3.84c-.09,0-.18,0-.28,0,.01,1.87.02,2.86.04,4.64,0,.09,0,.18,0,.27-.77,0-1.15,0-1.92,0,.02-1.97.03-2.95.05-4.92-.46,0-.79,0-1.13-.02-.05,0-.1,0-.15,0-.91,2.03-1.38,3.03-2.37,5.04-.15.31-.32.57-.49.77,0,0,0,0,0,0-.06.07-.12.13-.18.19-.25.23-.52.38-.82.46-.3.08-.62.11-.98.09-.27-.02-.56-.08-.84-.18-.28-.1-.51-.23-.68-.37.3-.45.45-.68.74-1.14.02.02.04.04.07.05.09.07.19.13.31.18.14.06.28.1.43.11.21.01.37-.02.49-.1.09-.05.16-.14.23-.25,0-.01.01-.02.02-.04-.76-1.99-1.15-3.05-1.85-5.11.14.01.26.02.38.03.49.04.84.06,1.42.1.43,1.26.7,2.04,1.08,3.07.07-.15.15-.3.21-.44.38-.78.7-1.48,1.17-2.51.05,0,.1,0,.15,0,.32.01.56.02.81.03,0-.1,0-.2,0-.28.01-.4.02-.67.03-1.14.09,0,.18,0,.27,0,2.11.06,3.25.06,5.45,0,.01.47.02.75.03,1.15,0,.08,0,.17,0,.27-.69.02-1.08.02-1.7.03Zm7.06,3.47c-.08.14-.17.28-.28.4-.19.22-.42.41-.7.57-.43.25-.94.39-1.51.41-.57.03-1.09-.06-1.54-.26-.45-.2-.81-.49-1.07-.87-.26-.37-.4-.81-.41-1.29-.01-.5.1-.94.33-1.33.02-.04.05-.08.08-.12,0,0,0-.01.02-.02.12-.17.26-.33.43-.47.14-.12.29-.23.46-.32.41-.23.9-.37,1.44-.4.55-.03,1.04.05,1.48.24.41.17.74.42,1.01.75.02.02.05.05.07.08.16.21.28.45.36.71.06.18.09.38.11.58.04.49-.05.93-.27,1.33Zm1.41,1.03c-.22-2.53-.34-3.79-.56-6.31.1,0,.2-.02.3-.03,1.8-.16,2.79-.27,4.67-.53.07.47.1.74.16,1.15.01.07.02.15.03.23-1.19.16-1.84.24-2.95.36-.1.01-.2.02-.3.03.04.4.08.74.11,1.05,1.12-.12,1.73-.19,2.89-.34.06.44.1.7.15,1.08.01.07.02.15.03.23-1.07.15-1.67.22-2.62.32-.1.01-.2.02-.3.03.04.35.08.71.12,1.15,1.39-.15,2.09-.23,3.48-.42.07.47.1.74.16,1.15.01.07.02.15.03.23-2.16.3-3.24.42-5.4.61Zm9.45-1.25c-.03-.19-.06-.33-.08-.47,0,0,0,0,0-.01,0-.05-.01-.1-.03-.15-.03.1-.08.19-.13.27-.01.02-.03.04-.04.06-.05.07-.11.14-.18.2-.18.16-.41.28-.7.36-.11.03-.23.06-.35.08-.41.07-.77.06-1.08-.03-.22-.06-.4-.15-.56-.27-.07-.05-.13-.11-.18-.17-.18-.21-.3-.45-.33-.72-.05-.3,0-.57.13-.82.09-.16.21-.3.37-.43.09-.07.18-.13.29-.18.32-.16.73-.29,1.25-.38.4-.07.65-.11,1-.17-.02-.08-.04-.15-.08-.21-.06-.13-.15-.23-.27-.29-.2-.12-.48-.14-.85-.08-.24.04-.48.12-.72.23-.24.12-.44.25-.59.4-.31-.42-.46-.63-.76-1.06.09-.08.2-.16.31-.23.19-.13.41-.24.65-.35.38-.16.76-.28,1.15-.35.8-.13,1.46-.06,1.97.21.51.28.85.8.99,1.56,0,0,0,.01,0,.02.1.54.18.95.26,1.36.06.33.13.67.21,1.08.01.07.03.14.04.21-.68.13-1.01.19-1.69.31Zm5.83-1.18c-.21.1-.43.17-.67.23-.66.15-1.21.11-1.64-.12-.43-.23-.71-.65-.84-1.26-.15-.71-.26-1.26-.37-1.8-.23.05-.46.09-.73.15-.1-.51-.15-.76-.25-1.26.11-.02.22-.04.32-.06.14-.03.27-.05.4-.08-.01-.07-.03-.14-.04-.21-.05-.27-.11-.55-.18-.87.12-.02.22-.04.32-.07.49-.1.82-.17,1.39-.3.09.4.17.75.24,1.07.34-.08.7-.16,1.12-.26.1.43.16.67.25,1.05.01.06.03.13.05.2-.3.07-.57.13-.82.19-.11.03-.21.05-.32.07.12.52.24,1.07.4,1.77.04.18.12.31.24.38.12.07.26.09.42.05.21-.05.38-.14.51-.28.28.41.43.62.7,1.01,0,.01.02.03.03.04-.14.14-.31.26-.52.35Z"/>
      <path class="cls-9" d="m41.45,57.14c-1.96.27-3.03.39-5.09.57-.21-2.44-.33-3.7-.54-6.06,1.8-.16,2.79-.27,4.67-.53.07.47.1.74.16,1.15-1.1.15-1.74.23-2.94.35,0,.08.02.16.02.24-.1.01-.2.02-.3.03.04.4.08.74.11,1.05,1.12-.12,1.73-.19,2.89-.34.06.44.1.7.15,1.08-.98.13-1.59.2-2.62.31,0,.08.02.16.03.24-.1.01-.2.02-.3.03.04.35.08.71.12,1.15,1.39-.15,2.09-.23,3.48-.42.07.47.1.74.16,1.15Z"/>
      <path class="cls-9" d="m46.97,55.12c-.08-.41-.16-.82-.26-1.36,0,0,0-.01,0-.02-.15-.77-.48-1.28-.99-1.56-.51-.28-1.17-.34-1.97-.21-.39.07-.77.18-1.15.35-.24.1-.46.22-.65.35.28.39.43.6.73,1.01.15-.14.35-.27.59-.4.24-.12.48-.19.72-.23.37-.06.65-.03.85.08.18.1.29.27.34.51-.13.02-.24.04-.35.06.03.06.06.13.08.21-.35.06-.6.1-1,.17-.52.09-.93.21-1.25.38-.11.06-.2.12-.29.18-.04.05-.07.1-.1.16-.13.25-.17.52-.13.82.04.27.15.51.33.72.05.06.12.12.18.17.15.12.34.21.56.27.31.09.67.1,1.08.03.13-.02.24-.04.35-.08.24-.07.44-.16.6-.29.02-.02.03-.04.04-.06.05-.09.1-.18.13-.27.01.05.02.1.03.15.04-.05.08-.1.12-.15.05-.09.1-.18.13-.27.01.06.02.11.03.16.02.14.05.28.08.47.56-.1.89-.16,1.38-.25-.08-.41-.15-.75-.21-1.08Zm-1.84.29s-.07.05-.1.08c-.04.08-.1.14-.17.2-.15.12-.32.2-.52.23-.2.03-.36.02-.49-.04,0,0-.02,0-.02-.01-.14-.07-.21-.18-.24-.32-.02-.15.02-.28.12-.39.04-.04.1-.08.17-.11.02-.06.05-.12.1-.16.1-.1.3-.18.59-.22.32-.05.51-.09.77-.14.01.07.02.15.04.22.01.06.02.12.03.19-.03.2-.12.37-.27.48Z"/>
      <path class="cls-3" d="m45.13,55.2c-.02.11-.05.2-.1.29-.04.08-.1.14-.17.2-.15.12-.32.2-.52.23-.2.03-.36.02-.49-.04,0,0-.02,0-.02-.01-.14-.07-.21-.18-.24-.32-.02-.15.02-.28.12-.39.04-.04.1-.08.17-.11.1-.05.24-.09.41-.11.32-.05.51-.09.77-.14.01.07.02.15.04.22.01.06.02.12.03.19Z"/>
      <path class="cls-9" d="m51.85,55.15c-.07.04-.14.08-.22.12-.21.1-.43.17-.67.23-.66.15-1.21.11-1.64-.12-.43-.23-.71-.65-.84-1.26-.15-.71-.26-1.26-.37-1.8-.23.05-.46.09-.73.15-.09-.43-.13-.68-.21-1.05.14-.03.27-.05.4-.08-.01-.07-.03-.14-.04-.21.11-.02.21-.04.32-.07-.06-.27-.12-.55-.18-.87.49-.1.82-.17,1.39-.3.09.4.17.75.24,1.07.34-.08.7-.16,1.12-.26.1.43.16.67.25,1.05-.3.07-.56.13-.82.19.01.07.03.13.04.2-.11.03-.21.05-.32.07.12.52.24,1.07.4,1.77.04.18.12.31.24.38.12.07.26.09.42.05.21-.05.38-.14.51-.28.28.41.43.62.7,1.01Z"/>
    </g>
  </g>
</svg>